<?xml version="1.0" ?><svg viewBox="0 0 547 394.417" xmlns="http://www.w3.org/2000/svg" xmlns:xlink="http://www.w3.org/1999/xlink"><style>:root>svg{display:none}:root>svg:target{display:block}</style><svg viewBox="0 0 32 32" id="close" xmlns="http://www.w3.org/2000/svg"><defs><style>.acls-1{fill:none;stroke:#000;stroke-linecap:round;stroke-linejoin:round;stroke-width:2px}</style></defs><g id="across"><path class="acls-1" d="m7 7 18 18M7 25 25 7"/></g></svg><svg fill="none" viewBox="0 0 68 73" id="doctor" xmlns="http://www.w3.org/2000/svg"><path d="M33.725.638c-5.838 0-9.332.887-11.553 1.992-1.112.553-1.901 1.135-2.432 1.73-.534.596-.87 1.47-.87 1.47a2.761 2.761 0 0 0-.173.693l-1.479 18.953c-.02.116.02.304 0 .432l-.172 1.905a2.764 2.764 0 0 0 0 .518c0 9.138 7.506 16.615 16.679 16.615 9.173 0 16.679-7.477 16.679-16.615v-.518l-1.651-21.29a2.761 2.761 0 0 0-.173-.692s-.336-.875-.87-1.47c-.53-.599-1.32-1.18-2.432-1.731C43.057 1.522 39.563.638 33.725.638Zm0 44.308C15.378 44.946.367 53.547.367 61.301v11.337h66.716V61.301c0-7.366-13.571-15.48-30.664-16.269a39.879 39.879 0 0 0-2.694-.086Zm0-38.77c5.282 0 7.92.832 9.034 1.385.373.186.417.258.523.347L44.41 22.1c-2.558.155-6.044.692-10.686.692s-8.126-.537-10.686-.692l1.129-14.192c.103-.089.15-.161.523-.347 1.114-.553 3.752-1.384 9.034-1.384Zm-2.26 2.77v3.29h-3.3v4.5h3.303v3.287h4.514v-3.29h3.303v-4.497h-3.303v-3.29h-4.517Zm-6.08 42.23L32.51 67.1H5.927v-5.799c0-2.063 7.088-8.105 19.459-10.124Zm16.68 0c12.37 2.022 19.458 8.062 19.458 10.125V67.1H34.94l7.124-15.923Z" fill="#EC5863"/></svg><svg fill="none" viewBox="0 0 88 73" id="health" xmlns="http://www.w3.org/2000/svg"><path d="M24.581.968c-6.376 0-12.492 2.502-17 6.955A23.602 23.602 0 0 0 .539 24.716c0 2.159.393 4.318.961 6.477h17.836l5.552-14.552c1.31-3.454 6.47-3.8 8.13 0l9.05 23.187 2.578-6.131c.569-1.425 2.099-2.504 3.978-2.504h38.381c.569-2.16.962-4.318.962-6.477a23.602 23.602 0 0 0-7.042-16.793C76.416 3.47 70.301.968 63.925.968c-8.131 0-15.3 4.015-19.672 10.104C39.882 4.982 32.713.968 24.58.968ZM4.911 37.669c-1.16 0-2.272.455-3.092 1.265a4.291 4.291 0 0 0-1.28 3.053c0 1.145.46 2.244 1.28 3.053a4.399 4.399 0 0 0 3.091 1.265h10.666l24.306 23.748c4.37 3.886 4.37 3.886 8.742 0L72.93 46.305h10.666c1.16 0 2.271-.455 3.09-1.265a4.291 4.291 0 0 0 1.281-3.053c0-1.145-.46-2.243-1.28-3.053a4.399 4.399 0 0 0-3.091-1.265H50.373L46.307 47.6c-1.748 4.361-6.775 3.757-8.393.13l-8.961-23.014-4.197 10.06c-.655 1.641-2.142 2.893-4.109 2.893H4.91Z" fill="#EC5863"/></svg><svg fill="none" viewBox="0 0 40.221 40" id="logo" xmlns="http://www.w3.org/2000/svg"><path d="M14.22 4.989c1.425-.5 2.991.174 3.497 1.504.388 1.018.041 2.125-.78 2.812l.443 1.211.707.816a.738.738 0 0 0 .651.245 8.643 8.643 0 0 1 1.961-.017.735.735 0 0 0 .592-.2l.51-.494.375-1.094a1.717 1.717 0 0 1-.238-1.573 1.739 1.739 0 0 1 2.307-1.036 1.732 1.732 0 0 1 1.008 2.059c-.15.53-.529.928-.995 1.125l-.416 1.212.094.669c.033.23.17.43.369.55.67.407 1.285.904 1.825 1.478a.769.769 0 0 0 .713.224l1.34-.269 1.513-.84a2.142 2.142 0 0 1 1.106-1.851 2.163 2.163 0 0 1 2.964.882c.509.97.19 2.19-.733 2.787-.72.466-1.6.449-2.278.051l-1.522.844-.85.903a.953.953 0 0 0-.223.906l.001.005c.15.553.24 1.108.277 1.659a.955.955 0 0 0 .498.78l1.11.598 2.2.415a1.74 1.74 0 0 1 1.467-.399 1.728 1.728 0 0 1 1.358 2.129 1.744 1.744 0 0 1-1.899 1.28 1.733 1.733 0 0 1-1.314-.9l-2.214-.417-1.365.166a.723.723 0 0 0-.574.419 8.693 8.693 0 0 1-1.669 2.47.715.715 0 0 0-.175.676l.34 1.31.837 1.31c.922-.138 1.88.26 2.413 1.092a2.407 2.407 0 0 1-.723 3.319 2.449 2.449 0 0 1-3.355-.697 2.402 2.402 0 0 1-.102-2.482l-.89-1.39-1.093-.898a.597.597 0 0 0-.58-.098 8.656 8.656 0 0 1-4.359.38.594.594 0 0 0-.487.136l-.587.508-.436 1.072c.295.456.37 1.042.15 1.583a1.74 1.74 0 0 1-2.361.908 1.731 1.731 0 0 1-.891-2.111c.179-.522.579-.898 1.056-1.069l.483-1.188-.09-1.043a8.664 8.664 0 0 1-2.282-2.069l-1.49.147-1.396.688c.009.934-.473 1.822-1.319 2.252-1.195.607-2.663.07-3.278-1.2-.615-1.27-.146-2.792 1.05-3.399.893-.454 1.94-.268 2.668.387l1.316-.649.913-.977a.252.252 0 0 0 .06-.238 8.51 8.51 0 0 1 .044-4.607.249.249 0 0 0-.048-.23l-.788-.938-1.698-.889a1.74 1.74 0 0 1-1.51-.05 1.722 1.722 0 0 1-.673-2.428 1.75 1.75 0 0 1 2.24-.653c.516.25.849.717.947 1.234l1.698.888 1.208.113a.252.252 0 0 0 .22-.092 8.601 8.601 0 0 1 1.941-1.76.734.734 0 0 0 .333-.6l.013-1.094-.474-1.29c-1.027-.074-1.956-.694-2.324-1.661-.506-1.33.239-2.813 1.664-3.312Z" fill="#EC5863"/><path d="M18.134 13.966c3.422-.912 6.939 1.108 7.856 4.51.917 3.403-1.114 6.901-4.536 7.813-3.421.912-6.938-1.108-7.855-4.51-.917-3.403 1.114-6.901 4.535-7.813Z" fill-rule="evenodd" fill="#F58A97"/><path d="M20.948 24.41c-3.1.827-6.28-.753-7.53-3.59.035.32.095.64.18.959.918 3.402 4.435 5.422 7.856 4.51 3.422-.912 5.453-4.41 4.536-7.813a6.411 6.411 0 0 0-.325-.92c.342 3.079-1.616 6.029-4.717 6.855Z" fill="#F07281"/><path d="M9.087 32.212a1.828 1.828 0 0 1 2.237 1.284 1.815 1.815 0 0 1-1.291 2.225 1.828 1.828 0 0 1-2.238-1.285 1.815 1.815 0 0 1 1.292-2.224ZM32.633 27.09a1.2 1.2 0 1 1 .624 2.318 1.2 1.2 0 1 1-.624-2.318ZM28.666 4.753a1.778 1.778 0 0 1 2.177 1.25 1.766 1.766 0 0 1-1.257 2.164 1.778 1.778 0 0 1-2.176-1.25 1.766 1.766 0 0 1 1.256-2.164ZM18.166 20.883a1.658 1.658 0 0 1 2.03 1.165 1.647 1.647 0 0 1-1.172 2.018 1.658 1.658 0 0 1-2.03-1.165 1.647 1.647 0 0 1 1.172-2.018ZM22.93 18.789a1.12 1.12 0 1 1 .584 2.167 1.12 1.12 0 1 1-.584-2.167ZM18.798 16.43a.941.941 0 1 1 .49 1.82.941.941 0 1 1-.49-1.82Z" fill-rule="evenodd" fill="#EB5569"/></svg><svg fill="none" viewBox="0 0 547 394.417" id="mainImage" xmlns="http://www.w3.org/2000/svg"><path d="M317.818 69.55c-35.067-1.22-68.493-12.548-100.362-24.94-31.87-12.391-63.457-26.123-97.703-32.69-22.019-4.227-47.2-4.822-64.938 6.99C37.742 30.273 32.228 49.89 29.261 68.093c-2.23 13.697-3.525 28.11 2.574 40.934 4.245 8.9 11.78 16.383 16.992 24.909 18.13 29.667 5.313 66.252-14.338 95.243-9.216 13.606-19.908 26.552-27.02 41.019-7.11 14.468-10.405 31.042-4.18 45.797 6.17 14.614 20.865 25.61 36.79 33.335 32.343 15.677 70.452 20.162 107.615 22.732 82.262 5.629 164.967 3.19 247.446.751 30.525-.907 61.185-1.819 91.212-6.551 16.675-2.625 33.893-6.788 46.001-16.836 15.365-12.76 19.178-34.358 8.879-50.358-17.275-26.829-65.034-33.496-77.111-62.29-6.642-15.849.182-33.506 9.841-48.206 20.714-31.531 55.444-59.196 57.273-95.242 1.259-24.758-15.437-49.546-41.252-61.262-27.055-12.291-64.575-10.74-84.534 9.574-20.553 20.928-56.673 28.981-87.631 27.908Z" fill="#587EEC" opacity=".6"/><path d="M122.004 365.36s-27.7-20.953-32.932-47.606a52.691 52.691 0 0 0-16.222-29.082 88.64 88.64 0 0 0-12.978-9.675" stroke="#9AB1F3" stroke-width="2"/><path d="M56.482 262.206c2.428 3.286 3.526 17.209 3.526 17.209s-12.979-5.114-15.411-8.395a7.404 7.404 0 0 1 1.538-10.353 7.396 7.396 0 0 1 10.347 1.539ZM79.76 273.131c.252 4.077-6.381 16.363-6.381 16.363s-8.124-11.359-8.38-15.435a7.399 7.399 0 0 1 6.92-7.755 7.39 7.39 0 0 1 7.836 6.827h.005ZM102.322 304.536c-1.833 3.649-13.764 10.905-13.764 10.905s-1.274-13.908.56-17.557a7.39 7.39 0 0 1 13.542 1.062 7.402 7.402 0 0 1-.338 5.59ZM114.051 332.131c-1.193 3.906-11.724 13.072-11.724 13.072s-3.61-13.49-2.417-17.401a7.395 7.395 0 0 1 13.6-1.308 7.404 7.404 0 0 1 .541 5.637ZM61.372 299.371c4.03.544 16.766-5.211 16.766-5.211s-10.747-8.909-14.796-9.453a7.397 7.397 0 0 0-6.862 11.82 7.39 7.39 0 0 0 4.892 2.844ZM75.499 331.476c4.029-.69 14.439-9.988 14.439-9.988s-12.923-5.281-16.947-4.591a7.386 7.386 0 0 0-4.827 3.011 7.401 7.401 0 0 0 4.445 11.517c.954.208 1.94.226 2.9.051h-.01ZM93.504 360.8c4.084 0 15.919-7.403 15.919-7.403s-11.84-7.393-15.924-7.393a7.393 7.393 0 0 0-7.394 7.398c0 1.962.78 3.843 2.166 5.231a7.393 7.393 0 0 0 5.228 2.167h.005Z" fill="#587EEC"/><path d="M391.091 184.133s17.073-30.261 42.808-38.979a52.643 52.643 0 0 0 26.652-19.951 88.34 88.34 0 0 0 7.851-14.175" stroke="#9AB1F3" stroke-width="2"/><path d="M484.559 105.485c-2.931 2.842-16.575 5.785-16.575 5.785s3.349-13.556 6.28-16.403a7.393 7.393 0 0 1 12.446 5.447 7.399 7.399 0 0 1-2.151 5.171ZM476.843 129.991c-4.029.796-17.058-4.153-17.058-4.153s10.173-9.574 14.177-10.355a7.387 7.387 0 0 1 7.727 3.079 7.394 7.394 0 0 1-.025 8.322 7.382 7.382 0 0 1-4.821 3.107ZM448.761 156.538c-3.858-1.336-12.626-12.2-12.626-12.2s13.598-3.115 17.466-1.779a7.391 7.391 0 0 1 4.658 9.443 7.429 7.429 0 0 1-1.474 2.509 7.408 7.408 0 0 1-5.148 2.458 7.39 7.39 0 0 1-2.876-.431ZM422.955 171.837c-4.029-.665-14.484-9.912-14.484-9.912s12.888-5.372 16.912-4.707a7.404 7.404 0 0 1 3.113 13.323 7.397 7.397 0 0 1-5.516 1.291l-.025.005ZM448.409 115.241c-.005 4.087 7.403 15.944 7.403 15.944s7.398-11.842 7.398-15.924a7.398 7.398 0 0 0-7.391-7.591 7.383 7.383 0 0 0-5.295 2.236 7.389 7.389 0 0 0-2.095 5.355l-.02-.02ZM418.478 133.513c1.219 3.901 11.815 12.996 11.815 12.996s3.525-13.515 2.297-17.415a7.4 7.4 0 0 0-3.664-4.154 7.385 7.385 0 0 0-5.518-.444 7.396 7.396 0 0 0-4.92 9.017h-.01ZM391.851 155.268c.544 4.031 9.448 14.8 9.448 14.8s5.747-12.724 5.203-16.771a7.405 7.405 0 0 0-2.794-5.017 7.386 7.386 0 0 0-8.307-.547 7.402 7.402 0 0 0-3.55 7.535Z" fill="#587EEC"/><path d="M484.559 105.485c-2.931 2.842-16.575 5.785-16.575 5.785s3.349-13.556 6.28-16.403a7.393 7.393 0 0 1 12.446 5.447 7.399 7.399 0 0 1-2.151 5.171ZM476.843 129.991c-4.029.796-17.058-4.153-17.058-4.153s10.173-9.574 14.177-10.355a7.387 7.387 0 0 1 7.727 3.079 7.394 7.394 0 0 1-.025 8.322 7.382 7.382 0 0 1-4.821 3.107ZM448.761 156.538c-3.858-1.336-12.626-12.2-12.626-12.2s13.598-3.115 17.466-1.779a7.391 7.391 0 0 1 4.658 9.443 7.429 7.429 0 0 1-1.474 2.509 7.408 7.408 0 0 1-5.148 2.458 7.39 7.39 0 0 1-2.876-.431ZM422.955 171.837c-4.029-.665-14.484-9.912-14.484-9.912s12.888-5.372 16.912-4.707a7.404 7.404 0 0 1 3.113 13.323 7.397 7.397 0 0 1-5.516 1.291l-.025.005ZM448.409 115.241c-.005 4.087 7.403 15.944 7.403 15.944s7.398-11.842 7.398-15.924a7.398 7.398 0 0 0-7.391-7.591 7.383 7.383 0 0 0-5.295 2.236 7.389 7.389 0 0 0-2.095 5.355l-.02-.02ZM418.478 133.513c1.219 3.901 11.815 12.996 11.815 12.996s3.525-13.515 2.297-17.415a7.4 7.4 0 0 0-3.664-4.154 7.385 7.385 0 0 0-5.518-.444 7.396 7.396 0 0 0-4.92 9.017h-.01ZM391.851 155.268c.544 4.031 9.448 14.8 9.448 14.8s5.747-12.724 5.203-16.771a7.405 7.405 0 0 0-2.794-5.017 7.386 7.386 0 0 0-8.307-.547 7.402 7.402 0 0 0-3.55 7.535Z" fill="#000" opacity=".25"/><path d="M392.073 183.533s3.354-34.59 23.328-52.983a52.71 52.71 0 0 0 16.287-29.046 88.28 88.28 0 0 0 1.455-16.126" stroke="#9AB1F3" stroke-width="2"/><path d="M445.664 73.707c-1.511 3.79-12.813 12.014-12.813 12.014s-2.427-13.752-.901-17.542a7.392 7.392 0 0 1 13.664-.12 7.409 7.409 0 0 1 .05 5.663v-.015ZM448.539 99.266c-3.339 2.349-17.274 3.12-17.274 3.12s5.429-12.87 8.768-15.219a7.396 7.396 0 0 1 5.59-1.383 7.388 7.388 0 0 1 4.886 3.048 7.4 7.4 0 0 1-1.97 10.43v.004ZM433.602 134.934c-4.069.343-16.489-6.047-16.489-6.047s11.181-8.365 15.25-8.708a7.392 7.392 0 0 1 5.391 1.721 7.403 7.403 0 0 1 .877 10.426 7.393 7.393 0 0 1-5.029 2.598v.01ZM416.222 159.37c-3.954 1.008-17.27-3.16-17.27-3.16s9.605-10.134 13.558-11.162a7.394 7.394 0 0 1 8.229 10.911 7.397 7.397 0 0 1-4.517 3.411ZM416.574 97.311c1.652 3.734 13.205 11.59 13.205 11.59s1.965-13.828.313-17.562a7.39 7.39 0 0 0-13.552.406 7.402 7.402 0 0 0 .034 5.581v-.015ZM396.611 126.146c2.694 3.069 16.06 7.09 16.06 7.09s-2.256-13.782-4.95-16.851a7.392 7.392 0 0 0-13.005 4.375 7.394 7.394 0 0 0 1.895 5.386ZM381.054 156.845c2.135 3.477 14.63 9.701 14.63 9.701s.106-13.964-2.014-17.446a7.394 7.394 0 0 0-13.345 2.237 7.404 7.404 0 0 0 .754 5.508h-.025Z" fill="#587EEC"/><path d="M366.388 48.072c.836-3.069 1.843-6.153 2.548-9.262-.846 3.11-1.858 6.203-2.548 9.262Z" fill="url(#ea)"/><path d="M362.641 77.633c-.071-.121-.121-.242-.176-.353 0-.05-.051-.09-.071-.141-.11.052-.222.097-.337.136a7.703 7.703 0 0 1-.68.232c-.232.065-.327.1-.504.14-.146.051-.296.09-.448.117l.04.09c.187-.04.368-.075.554-.126l.051.625c.211 0 .408-.03.599-.03.091-.005.181-.005.272 0h1.007a13.928 13.928 0 0 1-.307-.69Zm102.236 162.834c-2.367-3.19-7.091-37.427-7.091-37.427s-9.292-24.345-6.759-34.06c2.533-9.716-6.92-34.575-6.92-34.575s-6.245-2.716-6.582-6.747c0 0-25.499-8.063-26.692-14.11-.967-4.959-16.781-8.517-22.462-9.641-1.732-6.994-3.475-13.52-4.759-17.083a41.032 41.032 0 0 0-.977-2.822c-2.171-5.543-8.879-6.047-13.744-5.603a7.5 7.5 0 0 0-1.153-2.636 1.447 1.447 0 0 0-.459-.7 2.624 2.624 0 0 0-.332-.242 1.584 1.584 0 0 0-.343-.434 2.409 2.409 0 0 0-.453-.322 3.033 3.033 0 0 0-.362-.166 4.85 4.85 0 0 0-.902-.247 7.415 7.415 0 0 0-1.088-.141 6.621 6.621 0 0 0 2.322-1.699c.436-.512.76-1.109.952-1.753a5.163 5.163 0 0 0 .211-1.653c-.13.23-.282.448-.453.65.212-2.233-.967-4.5-1.642-6.723a19.911 19.911 0 0 1-.443-8.894c.675-4.465 2.347-8.98 3.48-13.525a.319.319 0 0 0 0-.076 35.16 35.16 0 0 0 1.098-6.899c.197-4.701-1.007-9.393-2.941-13.676-1.717-3.795-4.251-7.529-8.129-9.071-2.88-1.164-6.109-.978-9.211-1.17-6.96-.432-13.598-2.882-20.215-5.109C322.21 1.686 315.401-.34 308.436.048c-6.965.388-14.132 3.75-17.31 9.917-1.007 1.925-1.586 4.067-2.79 5.876-2.256 3.412-6.295 5.12-9.664 7.473-3.37 2.354-6.336 5.695-7.555 9.68a12.933 12.933 0 0 0-.272 6.627c.11.496.251.984.423 1.462a10.36 10.36 0 0 0 2.191 3.583 10.673 10.673 0 0 0 2.488 1.93 14.633 14.633 0 0 0 3.676 1.43c-.045.152-.09.313-.141.47-.08.257-.151.503-.226.78-.166.62-.323 1.25-.454 1.885a.62.62 0 0 0 0 .136 41.19 41.19 0 0 0-.926 8.723 40.27 40.27 0 0 0 .211 4.153c2.015 20.45 18.886 36.58 39.731 37.628.715.035 1.436.055 2.166.055h1.007c.328.434.65.877.957 1.311.307.433.589.877.856 1.31l-.73-.756-.73-.67a5.973 5.973 0 0 1-.66.761 12.244 12.244 0 0 0-1.455-.414c-2.091-.463-5.273-.634-9.464.63-3.852 1.154-8.561 3.528-14.071 8.038l-26.848 16.126-14.525 8.839-5.232 12.799s-3.934 15.209-8.31 32.635c-.171.05-.338.1-.504.161a9.814 9.814 0 0 0-7.883 2.671 9.82 9.82 0 0 0-3.015 6.697c-8.703 10.582-9.197 21.165-7.152 26.023.185.455.418.889.695 1.295 1.34 1.935 3.843 6.924 6.381 12.24-.065.439-.106.807-.126 1.084-.004.09-.004.181 0 .272 0 0 1.511 22.833-3.525 29.379-1.103 1.426-.937 3.301 0 5.377 3.374 7.468 16.715 17.441 16.715 17.441s16-.086 24.915-1.059c-.026.897-.046 1.789-.066 2.661-.201 8.809-.201 16.191-.201 16.191l-.333 9.237s-3.022 19.467-4.532 24.834c-.952 3.366.146 34.534 1.103 57.448h157.644c1.854-13.556-.76-54.742-.76-54.742s-2.483-10.648-2.574-19.93a.078.078 0 0 1-.007-.033c0-.011.002-.023.007-.033 0-.811 0-1.602.031-2.378l1.143-.041 2.055-.07h.186s.05-.192.166-.504a9.638 9.638 0 0 1 1.103-2.202c.876-1.295 2.246-2.565 4.306-2.651 1.138-.045 2.901-.968 4.89-2.328a.094.094 0 0 0 .041 0c5.353-3.623 12.429-10.311 14.146-11.409 2.362-1.512 13.674-11.59 13.674-11.59s1.687-2.137 3.485-4.712l.065-.091c2.236-3.225 4.614-7.08 4.029-8.294-1.007-2.177.675-7.383.675-7.383 5.253-9.62-.312-22.369-2.679-25.559ZM367.491 85.469c.048.15.079.306.091.463-.126-.166-.252-.342-.378-.504l-.121-.16-.086-.122.192-.262v.035c.133.164.235.35.302.55Zm-1.692-4.465c-.549.11-.982.212-1.264.287-.358-.635-.7-1.27-1.008-1.915a14.606 14.606 0 0 1 2.272 1.628Zm-.947.796a.077.077 0 0 1 0-.03l.04.03c.207.136.408.267.594.403.167.121.318.237.469.358a4.989 4.989 0 0 1-.322.504 22.702 22.702 0 0 1-.504-.821 1.817 1.817 0 0 1-.277-.444Zm-3.022-6.218a14.9 14.9 0 0 1 2.926 0c.136 0 .257.025.378.045.273.042.541.112.801.207a5.859 5.859 0 0 1 1.062 2.827l-.272.04-.267.05c-.503.086-1.007.172-1.4.252l-.503.106c-.67.146-1.058.257-1.073.262a9.724 9.724 0 0 0-.201-.393c-.111-.216-.227-.438-.328-.655-.1-.217-.231-.464-.337-.69-.071-.121-.121-.242-.176-.353 0-.05-.051-.09-.071-.141a1.254 1.254 0 0 1-.076-.166 50.97 50.97 0 0 1-.861-1.865c-.03-.06-.055-.126-.08-.187l.382-.025v.131l.096.555ZM241.67 388.188c-.04-7.503-.584-15.622-2.095-23.241a798.303 798.303 0 0 0-2.488-12.034l-1.551.207h-.141a1157.797 1157.797 0 0 0-8.652-37.548s-8.784-33.556-7.766-36.232c.131-.348-.035-1.285-.408-2.661-2.125-7.63-10.999-28.653-14.102-35.839 0-.031-.025-.066-.035-.091a74.757 74.757 0 0 0-.977-2.253l.73-10.723.041-.645.095-1.371-.04-.035.04-.635s-7.665-6.289-20.648-10.83a55.179 55.179 0 0 0-1.567-.529c.65-4.338 1.511-9.237 2.634-14.009a41.5 41.5 0 0 1 .343-1.411c.106-.468.226-.922.347-1.381.192-.745.398-1.481.61-2.207.7-.222 1.39-.468 2.07-.73l.262-.101a37.178 37.178 0 0 0 19.453-17.417 37.21 37.21 0 0 0 3.21-25.921 37.001 37.001 0 0 0-6.487-13.682 27.237 27.237 0 0 0-1.546-1.894c1.455-3.311 3.173-6.461 3.314-9.681a9.997 9.997 0 0 0 0-1.224v-.051c-.187-2.071-1.103-4.167-3.239-6.369-3.117-3.231-7.554-4.868-11.991-5.655-4.437-.786-8.959-.806-13.422-1.335-7.398-.887-14.605-3.17-22.003-3.87a52.252 52.252 0 0 0-26.606 4.535c-5.505 2.52-11.08 6.924-11.413 12.966-.272 4.994 3.203 9.782 2.327 14.715-.871 4.848-5.807 8.663-5.374 13.566.167 1.915 1.149 3.628 2.378 5.155.423.504.871 1.008 1.334 1.512 1.793 1.9 3.767 3.724 4.769 6.117.041.101.081.202.116.303.851 2.363.469 5.351-1.636 6.707a.08.08 0 0 1 .025.035c.03.041.06.071.085.111a.036.036 0 0 0 0-.025 5.517 5.517 0 0 0 2.876 1.794l.428.131a23.62 23.62 0 0 0-1.007 1.184l-.217.287a21.122 21.122 0 0 0-1.511 2.344c-.256.453-.503.907-.71 1.36a17.095 17.095 0 0 0-1.485 4.369c-.539 3.336.221 6.813-.595 10.079-1.007 4.031-4.195 7.125-5.993 10.87-3.404 7.055-1.475 15.334-.791 23.125.932 10.582-.579 21.21-2.085 31.722l-2.397 16.786-6.043 42.169c-.736 5.15-1.607 10.582-5.036 14.558h.035s0 .03-.035.04c1.029.451 2.124.733 3.243.837 4.477.448 9.221-1.719 13.25-4.087a62.626 62.626 0 0 0 9.03-6.344 828.787 828.787 0 0 0-1.329 4.933.417.417 0 0 1 0 .05c-5.686 21.669-14.832 61.394-14.832 61.394s-.831 1.728-1.909 4.303h142.023a245.393 245.393 0 0 1-4.417-5.502l-.489-.701ZM136.513 187.826c.035-.06.061-.115.096-.171v1.094c0 .206-.045.413-.081.62v.045l.504.186.584.242a150.955 150.955 0 0 0 10.486 3.704c.362.116.73.227 1.098.333l.075.625c.091.64.176 1.29.257 1.94v.05c.227 1.799.448 3.593.645 5.347 0 0-9.247-3.528-9.131 1.829a2.747 2.747 0 0 0 0 .287c-.01.128-.01.256 0 .383.085 4.173 1.39 6.647 1.652 7.917a.362.362 0 0 1-.081.141 2.76 2.76 0 0 0-.221 1.557 15.35 15.35 0 0 0 .211 2.691c-.272.166-.539.333-.806.504-.201.126-.393.267-.589.408a74.82 74.82 0 0 0-4.83-12.457c-1.385-2.852-2.941-5.825-2.926-8.955 0-.201 0-.408.025-.614.057-.907.229-1.803.514-2.666.116-.328.242-.65.383-.968.329-.754.697-1.491 1.103-2.207.262-.474.539-.942.806-1.416.085-.141.166-.287.246-.428l-.02-.021ZM362.641 77.633c-.071-.121-.121-.242-.176-.353 0-.05-.051-.09-.071-.141-.11.052-.222.097-.337.136a7.703 7.703 0 0 1-.68.232c-.232.065-.327.1-.504.14l-.448.117.04.09c.187-.04.368-.075.554-.126l.051.625c.211 0 .408-.03.599-.03h1.279a13.928 13.928 0 0 1-.307-.69Z" fill="url(#eb)"/><path d="m252.599 151.649-3.022 1.336s-19.697 76.567-19.697 82.755c0 6.188 41.766 40.622 41.766 40.622l6.517-44.014s-9.357-100.931-25.564-80.699Z" fill="#E8F5FF"/><path d="m344.213 127.295-17.45-9.111a34.988 34.988 0 0 0-5.117-11.666c-2.554-3.689-5.948-7.312-10.178-9.202-10.692-4.797 45.225-29.979 45.225-29.979a91.199 91.199 0 0 0 3.107 8.92c2.881 7.115 7.661 16.317 13.82 18.938 10.47 4.46-29.407 32.1-29.407 32.1Z" fill="#FFB0B1"/><path d="M359.8 76.257a41.71 41.71 0 0 1-14.204 21.282 41.675 41.675 0 0 1-23.95 8.979c-2.554-3.689-5.948-7.312-10.178-9.202-10.692-4.797 45.225-29.979 45.225-29.979a91.199 91.199 0 0 0 3.107 8.92Z" fill="#000" opacity=".1"/><path d="M361.372 63.543a41.71 41.71 0 0 1-7.017 23.165 41.673 41.673 0 0 1-18.698 15.359 41.638 41.638 0 0 1-24.074 2.376 41.66 41.66 0 0 1-21.336-11.41 41.712 41.712 0 0 1-9.033-45.436 41.683 41.683 0 0 1 15.348-18.71 41.645 41.645 0 0 1 23.15-7.024 41.47 41.47 0 0 1 38.539 25.7 41.508 41.508 0 0 1 3.121 15.98Z" fill="#FFB0B1"/><path d="m367.385 121.943-11.362 26.527-10.022 17.607H313.92l-9.357-24.073 3.792-24.964h24.502l15.818-.892 5.344-1.784 3.445 1.955 9.921 5.624Z" fill="#575A89"/><path d="M363.472 86.582s7.086 1.512.74 6.718c-6.345 5.205-28.238 21.759-28.238 21.759s7.69 6.854 6.099 14.881l25.478-14.21 4.533-22.738s.509-6.833-8.612-6.41Z" fill="#000" opacity=".1"/><path d="m340.985 115.059-16.207 2.676s3.344 12.372 1.672 15.884a2.36 2.36 0 0 0-.125.338l-6.613 17.884 4.956 14.045 17.153-23.408-5.847-8.859s6.179-8.194 9.856-11.036c3.676-2.842-4.845-7.524-4.845-7.524Z" fill="#000" opacity=".1"/><path d="m340.985 114.369-16.207 2.671s3.344 12.371 1.672 15.884c-.05.109-.092.222-.125.337l-6.613 17.885 4.956 14.044 17.153-23.422-5.847-8.86s6.179-8.193 9.856-11.036c3.676-2.842-4.845-7.503-4.845-7.503Z" fill="#DCE6F2"/><path d="M364.152 85.247s7.086 1.512.735 6.717c-6.351 5.206-28.913 23.095-28.913 23.095s8.355 5.518 6.769 13.541l25.478-14.206 4.533-22.737s.503-6.833-8.602-6.41Z" fill="#575A89"/><path d="M322.759 108.095s1.546 2.893 8.37 8.108c0 0-11.361 6.047-7.015 14.549l-17.38-4.536-2.675-8.36 18.7-9.761Z" fill="#000" opacity=".1"/><path d="M322.089 107.43s1.546 2.892 8.37 8.108c0 0-11.362 6.017-7.015 14.543l-17.375-4.535-2.675-8.355 18.695-9.761Z" fill="#575A89"/><path d="m367.385 121.943-11.362 26.527-10.002 17.607H313.92l-9.357-24.073 3.787-24.964h6.814c-.111 5.825 2.015 12.669 1.879 15.213-.232 4.183 6.235 26.749 6.235 26.749s13.532-21.901 18.876-23.851c3.359-1.225 10.475-11.414 15.305-18.832l9.926 5.624Z" fill="#000" opacity=".1"/><path d="m412.142 261.536-1.153 1.451s8.355 41.962 6.044 51.492a27.018 27.018 0 0 0-.67 5.23v.076c-.408 9.696 2.518 22.279 2.518 22.279s2.337 37.089 1.007 52.343H263.452c-.917-22.556-1.904-51.779-1.007-55.019 1.511-5.347 4.532-24.743 4.532-24.743l.333-9.192s0-8.884.272-18.781c.116-4.45.287-9.121.534-13.263.317-5.211.76-9.6 1.369-11.757.376-1.635.592-3.302.645-4.979 0-.156 0-.317.03-.479 0-.504.051-1.048.071-1.607v-.504c.095-3.245.06-7.095-.046-11.086v-.661a449.082 449.082 0 0 0-.352-8.949c-.438-9.071-1.007-16.741-1.007-16.741l-19.214-63.696 5.178-12.76 14.368-8.808 26.566-16.05c12.959-10.659 21.49-9.379 24.743-8.209.316.107.626.234.927.377.101.051.181.091.257.137.103.049.203.106.297.171a6.137 6.137 0 0 0-2.256 1.859 8.226 8.226 0 0 0-1.395 3.024c-.17.677-.29 1.366-.358 2.061-.065.731-.09 1.487-.09 2.248.035 1.668.178 3.333.428 4.983v.111a78.08 78.08 0 0 0 .574 3.417.253.253 0 0 0 0 .055c.231 1.265.463 2.434.619 3.442l.081.504c.111.666.163 1.341.156 2.016.057 1.63.276 3.251.655 4.837.131.666.282 1.376.448 2.117.226 1.008.473 2.106.74 3.225.146.615.302 1.25.464 1.88.06.252.125.504.186.761l.101.398a471.781 471.781 0 0 0 2.951 11.086c.423 1.512.69 2.444.69 2.444s7.584-12.27 13.638-19.255c.091-.101.171-.196.257-.287a32.93 32.93 0 0 1 1.752-1.875c1.234-1.229 2.342-2.106 3.234-2.429.19-.069.373-.155.549-.257 2.478-1.406 6.476-6.51 10.218-11.857.368-.504.725-1.053 1.088-1.572.831-1.2 1.637-2.404 2.397-3.558.585-.882 1.144-1.739 1.672-2.555 2.519-3.92 4.291-6.843 4.291-6.843l3.495-.156.61-.031h.408l15.869-.735s.685.115 1.813.342c.06 0 .121 0 .186.041 5.631 1.118 21.274 4.661 22.23 9.574 1.169 6.017 26.4 14.045 26.4 14.045.333 4.031 6.512 6.687 6.512 6.687s9.358 24.743 6.855 34.438c-2.473 9.575 6.436 33.259 6.673 33.925l-1.708 2.156-42.239 53.462Z" fill="#E8F5FF"/><path d="M363.467 84.824s15.446-4.384 18.956 4.641c3.511 9.025 11.362 45.474 11.362 45.474s-20.387 3.845-25.73 0a15.387 15.387 0 0 0-10.863-2.842l-11.528 7.856-3.405-1.007s18.443-27.434 22.452-36.757c4.009-9.322 5.363-13.49-1.244-17.365Z" fill="#000" opacity=".1"/><path d="M362.797 82.808s15.456-4.384 18.982 4.641c3.525 9.026 11.362 45.475 11.362 45.475s-20.382 3.845-25.731 0a15.374 15.374 0 0 0-10.858-2.843l-11.538 7.857-3.404-1.008s18.442-27.434 22.451-36.757c4.009-9.322 5.344-13.48-1.264-17.365Z" fill="#E8F5FF"/><path d="M259.116 228.216s11.528 2.842 13.704 9.363c2.175 6.521-8.522 6.687-8.522 6.687s-6.517-11.535-5.182-16.05ZM302.055 276.362s-28.233 57.845-21.716 63.363c6.517 5.518 21.716-63.363 21.716-63.363ZM340.985 233.734s22.557 56.188 18.045 64.866c-4.513 8.678 9.69 0 9.69 0l-27.735-64.866Z" fill="#000" opacity=".1"/><path d="M372.396 289.237s-76.188 3.678-53.963 27.419c22.225 23.74 67.833 1.007 67.833 1.007l-13.87-28.426Z" fill="#FFB0B1"/><path d="M361.372 63.543a41.505 41.505 0 0 1-3.158 15.934c-.7.08-1.4.131-2.075.161-1.007-2.212-.468-4.767-.448-7.2.02-2.435-.876-5.297-3.218-5.952-4.669-1.316-7.892 7.417-12.495 5.84-3.525-1.2-2.604-6.55-4.633-9.64-1.607-2.444-4.825-3.134-7.328-4.666-5.323-3.27-5.162-8.502-7.635-13.45-2.589-5.185-8.058-3.654-12.807-.595-3.606 2.328-6.719 5.448-10.576 7.302-3.34 1.613-7.091 2.197-10.793 2.283a23.707 23.707 0 0 1-6.769-.716 41.689 41.689 0 0 1 17.066-23.913 41.646 41.646 0 0 1 54.503 7.117 41.708 41.708 0 0 1 10.361 27.495h.005Z" fill="#000" opacity=".1"/><path d="M307.59 42.64c-3.611 2.328-6.718 5.442-10.576 7.307-3.339 1.607-7.091 2.192-10.793 2.278-4.533.1-9.413-.696-12.51-3.971-2.845-3.024-3.525-7.675-2.322-11.641 1.204-3.966 4.09-7.256 7.479-9.64 3.39-2.384 7.323-4.031 9.569-7.443 1.189-1.804 1.763-3.93 2.75-5.85 3.158-6.144 10.259-9.47 17.123-9.883 6.864-.413 13.668 1.633 20.206 3.85 6.537 2.218 13.124 4.657 20.024 5.115 3.072.192 6.265 0 9.115 1.164 3.833 1.557 6.346 5.281 8.058 9.07 1.919 4.274 3.113 8.94 2.911 13.607-.423 9.963-7 19.739-4.109 29.283.765 2.545 2.201 5.155 1.435 7.7-1.118 3.714-5.908 4.56-9.78 4.737-1.008-2.212-.469-4.772-.449-7.201.021-2.429-.876-5.296-3.213-5.951-4.673-1.306-7.897 7.412-12.49 5.84-3.5-1.204-2.593-6.55-4.628-9.64-1.607-2.45-4.83-3.135-7.328-4.666-5.323-3.27-5.162-8.502-7.635-13.45-2.608-5.21-8.083-3.679-12.837-.615Z" fill="#575A89"/><path d="m233.713 234.399-3.843 1.341s1.511 22.737-3.525 29.258c-5.036 6.521 16.539 22.732 16.539 22.732s29.573-.166 30.409-2.52c.836-2.353-1.511-42.128-1.511-42.128s-15.874-6.188-14.54-16.05c0 0-4.845 23.236-12.026 22.233-7.182-1.003-15.336-7.004-11.503-14.866Z" fill="#E8F5FF"/><path d="M256.668 247.023c0 5.124-4.539 9.277-10.138 9.277s-10.138-4.153-10.138-9.277 4.539-9.277 10.138-9.277 10.138 4.153 10.138 9.277Z" fill-rule="evenodd" fill="#000" opacity=".1"/><path d="M257.615 235.07s-2.014-61.52-19.551-47.813c-17.536 13.707-17.707 30.1-14.368 34.942 3.339 4.843 14.046 29.087 14.046 29.087a12.245 12.245 0 0 0 11.121.596 12.261 12.261 0 0 0 7.01-8.659l1.742-8.153Z" fill="#FFB0B1"/><path d="M367.007 79.24a1.477 1.477 0 0 0-.453-.695c-.866-.791-2.73-1.069-5.54-.827l.116 1.33c3.747-.322 4.487.424 4.583.55v.126l.116.166a5.62 5.62 0 0 1 1.007 4.435c-.821 4.107-5.862 7.377-5.912 7.413l-.121.07-.076.116c-2.175 3.23-14.479 12.346-17.697 14.705l-.282-.323c-1.441 1.25-14.102 12.341-14.787 16.589-.443 2.666-3.445 3.699-4.532 3.987-1.149-.872-4.875-3.84-6.814-7.166-1.818-3.13 5.499-9.237 6.144-11.621l-1.007-1.033c-.106.383-9.504 9.172-6.89 13.662 2.095 3.603 5.923 6.687 7.262 7.705-.428 3.89-3.092 26.733-7.186 32.145-5.087 6.728-9.363 40.632-8.889 52.469.418 10.517-2.327 30.382-11.493 38.913a14.685 14.685 0 0 1-12.122 4.032h-.222c-.131 0-13.427 1.36-24.597-8.063-9.141-7.695-14.318-20.253-15.396-37.336h-.221l-.091-4.974a9.696 9.696 0 0 0 8.133-10.721 9.702 9.702 0 0 0-3.482-6.365 9.688 9.688 0 0 0-13.408 1.075 9.7 9.7 0 0 0 .572 13.447 9.69 9.69 0 0 0 6.739 2.68h.111l.091 4.944-.443.03c1.108 17.637 6.547 30.684 16.116 38.742a37.256 37.256 0 0 0 25.992 8.511c.669.073 1.341.11 2.014.111a16.516 16.516 0 0 0 11.584-4.661c9.654-8.995 12.59-29.591 12.132-40.466-.504-12.542 3.984-45.227 8.486-51.179 4.412-5.84 7.086-28.598 7.555-33.007 1.596-.448 5.207-1.864 5.821-5.543.444-2.661 8.899-10.86 14.102-15.4l-.156-.182c2.8-2.045 11.508-8.496 15.824-12.638 1.339-1.285 2.669-2.57 4.059-3.795 1.672-1.481 3.797-3.834 4.356-6.616a6.872 6.872 0 0 0-1.098-5.342Z" fill="#000" opacity=".1"/><path d="M321.953 128.111c-.211-.146-5.227-3.739-7.74-8.063-2.609-4.49 6.788-13.273 6.889-13.656l1.007 1.033c-.639 2.378-7.957 8.491-6.139 11.615 2.292 3.946 7.116 7.398 7.167 7.433l-1.184 1.638Z" fill="#353146"/><path d="m342.375 107.606-.785-1.083c.161-.116 15.98-11.565 18.473-15.27l.08-.11.116-.076c.05-.035 5.092-3.3 5.913-7.412a5.59 5.59 0 0 0-1.008-4.43l-.116-.171v-.121c-.1-.131-.841-.872-4.588-.55l-.115-1.335c2.815-.242 4.673.035 5.539.827.216.185.375.428.459.7a6.899 6.899 0 0 1 1.138 5.347c-.559 2.787-2.679 5.14-4.356 6.616-1.385 1.225-2.72 2.52-4.055 3.795-5.061 4.853-16.141 12.875-16.695 13.273Z" fill="#E8F5FF"/><path d="m239.923 203.885 1.334-.024.149 8.117-1.335.024-.148-8.117Z" fill-rule="evenodd" fill="#E8F5FF"/><path d="M249.557 195.34c0 5.385-4.363 9.751-9.745 9.751-5.382 0-9.745-4.366-9.745-9.751s4.363-9.751 9.745-9.751c5.382 0 9.745 4.366 9.745 9.751Z" fill-rule="evenodd" fill="#587EEC"/><path d="M247.905 195.34a8.095 8.095 0 0 1-8.093 8.098 8.095 8.095 0 0 1-8.093-8.098c0-4.472 3.623-8.098 8.093-8.098s8.093 3.626 8.093 8.098Z" fill-rule="evenodd" fill="#E8F5FF"/><path d="M283.708 257.419a18.577 18.577 0 0 1-2.015-.106 37.31 37.31 0 0 1-25.992-8.511c-9.569-8.063-14.998-21.095-16.116-38.747l2.015-.126c1.077 17.083 6.255 29.646 15.4 37.336 11.171 9.398 24.462 8.063 24.593 8.063h.221a14.716 14.716 0 0 0 12.127-4.032c9.161-8.531 11.906-28.396 11.488-38.913-.503-11.847 3.772-45.752 8.864-52.474 4.457-5.891 7.222-32.443 7.252-32.71l.076-.756.745-.131c.045 0 4.397-.826 4.941-4.082.705-4.243 13.346-15.334 14.781-16.589l1.314 1.512c-5.222 4.535-13.678 12.739-14.101 15.405-.614 3.689-4.225 5.1-5.817 5.543-.504 4.414-3.158 27.167-7.554 33.007-4.503 5.952-8.99 38.636-8.486 51.179.433 10.875-2.473 31.475-12.128 40.465a16.516 16.516 0 0 1-11.608 4.667Z" fill="#353146"/><g opacity=".1"><path d="M365.663 51.63c.826-3.054 1.823-6.128 2.518-9.222-.831 3.11-1.833 6.168-2.518 9.222ZM357.237 75.627c-1.007-2.212-.468-4.772-.448-7.201.02-2.429-.876-5.271-3.213-5.952-4.674-1.305-7.897 7.418-12.49 5.841-3.525-1.204-2.594-6.551-4.628-9.64-1.607-2.45-4.825-3.134-7.323-4.666-5.329-3.27-5.167-8.502-7.635-13.45-2.594-5.19-8.058-3.659-12.812-.595-3.611 2.328-6.719 5.448-10.576 7.307-3.34 1.608-7.091 2.192-10.793 2.278-4.508.106-9.413-.696-12.51-3.971-2.387-2.52-3.249-6.214-2.755-9.676-.086.237-.161.474-.237.711-1.208 3.966-.503 8.627 2.322 11.64 3.097 3.276 8.003 4.072 12.51 3.972 3.707-.086 7.454-.67 10.798-2.278 3.868-1.865 6.975-4.979 10.576-7.307 4.754-3.064 10.223-4.596 12.812.595 2.468 4.948 2.312 10.179 7.635 13.45 2.518 1.511 5.716 2.217 7.328 4.666 2.014 3.099 1.123 8.436 4.628 9.64 4.588 1.572 7.811-7.146 12.485-5.84 2.337.654 3.238 3.527 3.213 5.95-.025 2.425-.549 4.99.448 7.202 3.873-.177 8.663-1.008 9.786-4.737a5.431 5.431 0 0 0 .211-1.648c-1.636 2.827-5.847 3.553-9.332 3.709Z" fill="#000" opacity=".1"/></g><path d="m448.257 199.795 5.848 6.188s4.678 34.101 7.015 37.291c2.337 3.19 7.857 15.878 2.674 25.408 0 0-1.672 5.185-.669 7.357 1.002 2.172-7.515 13.042-7.515 13.042s-11.195 10.028-13.537 11.535c-2.342 1.506-14.701 13.54-18.876 13.706-4.175.167-5.54 5.352-5.54 5.352l-23.559.837s-13.014-.681-15.844 1.159c0 0 1.51-19.895-13.029-32.937l18.543-6.687s7.021-3.024 9.191-6.183a11.354 11.354 0 0 1 5.54-4.178s5.178-3.679 5.344-5.684c.166-2.006 6.33-4.465 6.33-4.465l-3.49-29.807 1.838-49.486s5.848-41.463 18.212-39.12c12.363 2.343 21.524 56.672 21.524 56.672Z" fill="#000" opacity=".1"/><path d="m450.272 199.795 5.847 6.188s4.679 34.101 7.015 37.291c2.337 3.19 7.857 15.878 2.675 25.408 0 0-1.667 5.185-.665 7.357 1.002 2.172-7.519 13.042-7.519 13.042s-11.196 10.028-13.538 11.535c-2.342 1.506-14.701 13.54-18.876 13.706-4.175.167-5.539 5.352-5.539 5.352l-23.56.837s-13.024-.681-15.844 1.159c0 0 1.511-19.895-13.029-32.937l18.544-6.687s7.02-3.024 9.191-6.183a11.345 11.345 0 0 1 5.54-4.178s5.177-3.679 5.343-5.684c.166-2.006 6.331-4.465 6.331-4.465l-3.49-29.807 1.838-49.486s5.847-41.463 18.211-39.12c12.364 2.343 21.525 56.672 21.525 56.672Z" fill="#E8F5FF"/><path d="M428.535 249.785s17.209-4.536 21.722 1.007c4.512 5.544-21.722-1.007-21.722-1.007ZM424.527 257.389c5.847 4.097 23.892 4.263 23.892 4.263l-23.892-4.263ZM433.38 277.868c.504.167 12.405 12.876 17.401 9.031 4.995-3.845-17.401-9.031-17.401-9.031ZM273.107 171.207s3.495 24.078 1.772 33.884c-1.722 9.807 4.563 21.956 4.563 21.956l-6.335-55.84Z" fill="#000" opacity=".1"/><path d="M195.73 180.998c-4.029 3.16-6.971 10.638-9.101 18.857-3.717 14.337-4.93 30.962-4.93 30.962s-32.081-7.358-29.745-10.699c1.471-2.101-.503-17.935-2.15-29.414-.982-6.783-1.858-12.049-1.858-12.049s58.813-6.354 47.784 2.343Z" fill="#FFB0B1"/><path d="M195.73 180.328c-4.029 3.165-6.971 10.638-9.101 18.857a36.999 36.999 0 0 1-36.825-9.146c-.982-6.788-1.858-12.054-1.858-12.054s58.813-6.35 47.784 2.343Z" fill="#000" opacity=".1"/><path d="M212.974 162.318a37.145 37.145 0 0 1-8.74 23.949 37.088 37.088 0 0 1-47.178 8.07 37.124 37.124 0 0 1-16.194-19.684 37.149 37.149 0 0 1 .311-25.494 37.123 37.123 0 0 1 16.669-19.282 37.087 37.087 0 0 1 25.168-3.98 37.126 37.126 0 0 1 29.964 36.421Z" fill="#FFB0B1"/><path d="M242.224 394.407h-10.576l-.891-18.691-.932-19.346s2.402-.358 6.23-.892l1.546-.207h.126a827.955 827.955 0 0 1 2.457 11.984 123.162 123.162 0 0 1 2.06 21.669v1.481c.03 1.346 0 2.691-.02 4.002Z" fill="#000" opacity=".1"/><path d="M240.195 394.407H107.56a69.39 69.39 0 0 1 .957-2.097s10.611-46.452 16.005-66.105a.209.209 0 0 0 0-.05 78.628 78.628 0 0 1 2.437-7.887c.062-.176.141-.344.237-.504 2.669-4.344 6.013-9.025 1.335-15.712-4.679-6.687-3.022-36.112-3.022-36.112s5.681-25.08 11.694-38.454a17.995 17.995 0 0 1 3.818-5.544 15.628 15.628 0 0 1 1.672-1.421c.448-.337.916-.648 1.4-.932l.095-.06a20.2 20.2 0 0 1 8.225-2.555 23.43 23.43 0 0 1 6.169.171c9.75 1.431 17.556 3.825 23.761 6.551 16.816 7.393 21.908 17.3 22.009 17.507l.04.085c.675 1.578 10.546 24.637 14.101 35.396.922 2.802 1.426 4.772 1.224 5.311-1.007 2.671 7.685 36.107 7.685 36.107s4.029 16.126 8.058 35.028c.177.786.343 1.572.504 2.368.72 3.432 1.435 6.929 2.125 10.422a122.485 122.485 0 0 1 2.06 21.82c.074 2.281.089 4.503.046 6.667Z" fill="#EB5569"/><path d="M151.622 205.474s-9.151-3.527-9.04 1.824c.111 5.352 2.231 7.912 1.561 8.693-.67.781.333 5.463.333 5.463s12.364 0 18.044 2.56c5.681 2.56 26.622 7.689 29.296 9.252 2.675 1.562 12.591 8.566 12.591 8.566l.891-13.263s-10.248-8.471-27.064-12.815c-16.816-4.344-26.612-10.28-26.612-10.28Z" fill="#000" opacity=".1"/><path d="M151.622 204.804s-9.151-3.528-9.04 1.824c.111 5.352 2.231 7.912 1.561 8.693-.67.781.333 5.462.333 5.462s12.364 0 18.044 2.565c5.681 2.565 26.622 7.69 29.296 9.247 2.675 1.558 12.591 8.567 12.591 8.567l.901-13.223s-10.248-8.471-27.064-12.815c-16.816-4.344-26.622-10.32-26.622-10.32Z" fill="#EB5569"/><path d="M179.246 236.723s17.486 18.942 16.594 24.188c-.891 5.246-16.594-24.188-16.594-24.188ZM150.841 305.151s-12.817 11.817-16.594 12.487c-3.777.671 2.896 2.898 7.237 1.119 4.341-1.779 13.598-6.46 13.598-6.46l-4.241-7.146Z" fill="#000" opacity=".1"/><path d="M245.402 394.407h-29.89c-4.18-3.629-8.134-6.99-10.652-9.011-4.029-3.235-6.935-7.997-8.788-11.827a49.352 49.352 0 0 1-1.088-2.429 40.466 40.466 0 0 1-1.45-3.905l22.134-13.153a34.604 34.604 0 0 1 3.44 3.367l.267.307c1.228 1.451 2.311 3.099 2.407 4.45.111 1.572 4.482 7.654 8.949 13.495 4.533 5.941 9.176 11.62 9.484 12.003 0 0 .765 1.043 2.014 2.646.881 1.159 1.969 2.55 3.173 4.057Z" fill="#FFB0B1"/><path d="M204.81 139.097c-1.063 2.398-2.015 4.888-2.156 7.559-.397 7.71.247 24.949-8.284 28.819-4.226 1.905-8.748-2.277-13.382-2.378-3.334-.071-6.391 2.046-8.425 4.691-2.035 2.646-3.299 5.785-4.775 8.779a59.934 59.934 0 0 1-4.628 7.811 19.688 19.688 0 0 1-1.712 2.161 37.125 37.125 0 0 1-21.99-41.298A37.127 37.127 0 0 1 159.1 129.23a37.069 37.069 0 0 1 32.578-.47 37.103 37.103 0 0 1 13.132 10.357v-.02Z" fill="#000" opacity=".1"/><path d="M201.985 145.295c-.403 7.71.246 24.949-8.29 28.815-4.226 1.904-8.748-2.273-13.381-2.374-3.334-.076-6.386 2.046-8.426 4.687-2.04 2.64-3.294 5.785-4.774 8.783a60.053 60.053 0 0 1-4.629 7.811c-1.037 1.471-2.186 2.948-3.782 3.774-2.78 1.452-6.149.635-9.131-.297a149.958 149.958 0 0 1-11.432-4.122c.086-.567.13-1.14.131-1.713-.111.211-.232.408-.353.619l-.236.414a45.329 45.329 0 0 0-1.229 2.287c-.146.298-.287.605-.413.913a11.566 11.566 0 0 0-.942 3.608c-.257 3.361 1.4 6.551 2.871 9.574 5.655 11.696 9.151 25.373 4.895 37.644-1.843 5.336-5.036 10.078-7.368 15.233a49.25 49.25 0 0 0-3.44 29.117c1.164 6.108 3.495 12.155 2.921 18.348-1.007 10.658-10.193 18.59-19.394 24.043-4.971 2.933-11.055 5.543-16.333 3.225 3.364-3.931 4.23-9.368 4.956-14.498a66192.907 66192.907 0 0 1 8.35-58.718c1.48-10.471 2.981-21.059 2.055-31.596-.675-7.766-2.579-16.01.785-23.04 1.778-3.724 4.946-6.808 5.933-10.819.811-3.26.055-6.727.589-10.048a17.086 17.086 0 0 1 1.471-4.354 21.37 21.37 0 0 1 3.374-5.15c-1.35-.393-2.609-.933-3.374-2.061 2.165-1.411 2.493-4.591 1.511-6.98-.982-2.388-2.947-4.208-4.714-6.092-1.768-1.885-3.47-4.082-3.692-6.652-.428-4.893 4.457-8.683 5.318-13.51.872-4.914-2.573-9.691-2.296-14.665.322-6.012 5.842-10.381 11.291-12.915a51.346 51.346 0 0 1 26.33-4.536c7.343.696 14.449 2.968 21.771 3.85 4.417.504 8.894.555 13.281 1.331 4.387.776 8.783 2.413 11.871 5.634 8.138 8.491-1.612 15.48-2.075 24.43Z" fill="#575A89"/><path d="M195.175 373.574c-2.568-1.113-7.242-.448-15.264-2.892-8.023-2.444-9.569-13.491-9.569-13.491v-.035c-.096-.252-.841-1.895-5.888-7.649-5.575-6.355-17.627-38.45-17.627-38.45s-10.687-11.485-10.349-15.718c.337-4.233-1.899-15.495-1.677-28.094.221-12.598 24.058-20.953 24.058-20.953 45.895-8.138 35.088 44.804 33.864 48.816-1.224 4.011 5.127 14.845 5.127 14.845-.897 4.717 3.676 12.019 3.676 12.019s1.108 6.46 1.335 8.914c.012.114.038.225.075.333.736 2.313 6.729 4.409 9.166 5.684 2.564 1.341 10.808 13.042 10.808 13.042 1.778 8.592-25.176 24.758-27.735 23.629Z" fill="#000" opacity=".1"/><path d="M196.51 371.558c-2.563-1.118-7.242-.448-15.26-2.897-8.017-2.449-9.569-13.485-9.569-13.485v-.036c-.09-.257-.841-1.894-5.887-7.649-5.575-6.355-17.627-38.455-17.627-38.455s-10.687-11.479-10.354-15.712c.332-4.233-1.894-15.496-1.672-28.084.221-12.588 24.043-20.938 24.043-20.938 45.895-8.139 35.087 44.804 33.863 48.815-1.223 4.011 5.127 14.846 5.127 14.846-.896 4.716 3.677 12.018 3.677 12.018s1.108 6.461 1.339 8.915c.009.113.033.225.071.332.735 2.314 6.728 4.41 9.171 5.685 2.558 1.335 10.808 13.041 10.808 13.041 1.788 8.577-25.166 24.743-27.73 23.604Z" fill="#EB5569"/><path d="M161.09 271.942s20.049 21.165 25.282 21.165c5.233 0-25.282-21.165-25.282-21.165Z" fill="#000" opacity=".1"/><path d="M196.51 371.558c-2.563-1.118-7.242-.448-15.26-2.897s-9.569-13.485-9.569-13.485v-.035c5.314-3.528 18.77-13.491 24.074-17.134 3.731-2.555 6.778-6.309 8.561-8.799.736 2.313 6.729 4.41 9.171 5.685 2.559 1.335 10.808 13.041 10.808 13.041 1.733 8.597-25.222 24.763-27.785 23.624Z" fill="#FF748E"/><g opacity=".1"><path d="M123.419 175.455c.025.04.06.076.091.116.151-.192.307-.383.468-.564a3.76 3.76 0 0 1-.559.448ZM135.103 198.555c.212-2.797 1.707-5.261 3.108-7.72-.917-.353-1.834-.711-2.74-1.083.086-.566.13-1.137.131-1.709-1.415 2.52-2.957 4.999-3.173 7.836-.257 3.367 1.4 6.551 2.871 9.575 5.66 11.691 9.15 25.368 4.895 37.643-1.849 5.332-5.036 10.079-7.368 15.234a49.223 49.223 0 0 0-3.435 29.112c1.153 6.113 3.49 12.155 2.916 18.348-1.007 10.658-10.188 18.59-19.395 24.037-3.762 2.228-8.158 4.269-12.364 4.122a15.21 15.21 0 0 1-1.299 1.789c5.283 2.334 11.362-.292 16.333-3.235 9.211-5.442 18.412-13.354 19.419-24.032.575-6.193-1.762-12.236-2.921-18.348a49.27 49.27 0 0 1 3.425-29.112c2.317-5.15 5.54-9.902 7.368-15.234 4.256-12.275.761-25.952-4.895-37.643-1.466-3.044-3.133-6.214-2.876-9.58Z" fill="#000" opacity=".1"/><path d="M204.049 120.925a14.599 14.599 0 0 0-1.591-1.411c6.104 7.922-2.71 14.654-3.148 23.181-.393 7.71.252 24.954-8.284 28.814-4.221 1.91-8.748-2.272-13.377-2.373-3.339-.071-6.391 2.051-8.43 4.691-2.04 2.641-3.294 5.785-4.77 8.779a60.44 60.44 0 0 1-4.633 7.811c-1.007 1.476-2.186 2.948-3.787 3.779-2.77 1.446-6.139.635-9.126-.302a142.832 142.832 0 0 1-8.632-3.024c-.006.525-.05 1.049-.131 1.567a147.16 147.16 0 0 0 11.437 4.122c2.982.938 6.351 1.749 9.126.303 1.596-.832 2.755-2.308 3.787-3.785a59.408 59.408 0 0 0 4.629-7.805c1.48-2.994 2.729-6.143 4.774-8.784 2.045-2.641 5.092-4.757 8.426-4.686 4.633.1 9.16 4.283 13.381 2.373 8.536-3.86 7.887-21.104 8.285-28.815.463-8.964 10.213-15.949 2.064-24.435Z" fill="#000" opacity=".1"/></g><path d="M137.687 191.697a45.766 45.766 0 0 0-1.229 2.287c-.146.298-.287.605-.413.913-2.639-2.661-9.065-8.985-12.651-10.946a21.499 21.499 0 0 1 3.374-5.15s8.547 4.52 10.919 12.896Z" fill="#000" opacity=".1"/><path d="M137.923 191.284c-1.979-8.965-11.155-13.818-11.155-13.818a21.37 21.37 0 0 0-3.374 5.15c3.782 2.071 10.752 9.015 13.064 11.369l1.465-2.701Z" fill="#EB5569"/><defs><linearGradient id="ea" x1="367.662" y1="48.072" x2="367.662" y2="38.81" gradientUnits="userSpaceOnUse"><stop stop-color="gray" stop-opacity=".247"/><stop offset=".54" stop-color="gray" stop-opacity=".118"/><stop offset="1" stop-color="gray" stop-opacity=".098"/></linearGradient><linearGradient id="eb" x1="231049.375" y1="331838.438" x2="231049.375" y2="23136.469" gradientUnits="userSpaceOnUse"><stop stop-color="gray" stop-opacity=".247"/><stop offset=".54" stop-color="gray" stop-opacity=".118"/><stop offset="1" stop-color="gray" stop-opacity=".098"/></linearGradient></defs></svg><svg fill="none" viewBox="0 0 65 73" id="man" xmlns="http://www.w3.org/2000/svg"><path d="M64.481 25.61H43.053v46.8H35.91v-21.6h-7.143v21.6h-7.143v-46.8H.196v-7.2H64.48v7.2ZM32.34.41c1.894 0 3.71.759 5.05 2.109a7.23 7.23 0 0 1 2.092 5.091 7.23 7.23 0 0 1-2.092 5.091 7.114 7.114 0 0 1-5.05 2.11 7.114 7.114 0 0 1-5.051-2.11 7.23 7.23 0 0 1-2.092-5.09c0-3.997 3.178-7.2 7.143-7.2Z" fill="#EC5863"/></svg><svg fill="none" viewBox="0 0 10.197 11.774" id="play" xmlns="http://www.w3.org/2000/svg"><path d="M10.197 5.887 0 0v11.774l10.197-5.887Z" fill-rule="evenodd" fill="#FFF"/></svg><svg fill="none" viewBox="0 0 522 284" id="prevVideo" xmlns="http://www.w3.org/2000/svg"><rect x=".83" width="521.17" height="284" rx="8" fill="#fff"/><g opacity=".5"><path opacity=".1" d="M205.674 259.185c16.197 0 29.327-2.104 29.327-4.701 0-2.597-13.13-4.702-29.327-4.702-16.197 0-29.328 2.105-29.328 4.702s13.131 4.701 29.328 4.701ZM365.093 259.317c20.211 0 36.596-2.104 36.596-4.701 0-2.597-16.385-4.701-36.596-4.701-20.212 0-36.596 2.104-36.596 4.701 0 2.597 16.384 4.701 36.596 4.701ZM99.266 125.772h30.546v41.556h-28.31c-.075.427-.148.856-.226 1.286h28.536v33.514c-.051-.015-.096-.033-.144-.051a54.981 54.981 0 0 1-2.408-1.016l-.512-.231a59.973 59.973 0 0 1-2.408-1.202 50.09 50.09 0 0 1-12.84-9.817c-.102-.099-.198-.204-.301-.3a51.706 51.706 0 0 1-1.429-1.611l-.512-.6a52.855 52.855 0 0 1-1.592-2.055c-.075-.102-.147-.205-.226-.301a44.715 44.715 0 0 1-5.177-9.343c-.042-.099-.078-.207-.117-.3a40.728 40.728 0 0 1-1.099-3.214c-.138-.454-.27-.902-.385-1.373a7.838 7.838 0 0 1-.111-.409c-1.71-6.66-1.911-13.579-1.911-20.449v-2.403c0-2.779.033-5.576.08-8.37 0-.724.031-1.445.046-2.172a283.137 283.137 0 0 1 .25-7.069c0-.294.015-.588.045-.883.072-1.069.132-2.13.205-3.187ZM129.812 79.502h-16.755a126.724 126.724 0 0 1 8.911-12.245 155.807 155.807 0 0 1 7.844-8.892v21.137ZM129.812 80.788v43.698h-30.45c0-.126.021-.255.03-.381a110.937 110.937 0 0 1 .193-2.236c.039-.393.081-.874.126-1.309.045-.436.087-.878.139-1.313.05-.436.096-.871.15-1.304.054-.433.102-.871.16-1.304.045-.36.093-.718.141-1.078.069-.508.142-1.019.22-1.523 0-.075.021-.154.033-.226a103.784 103.784 0 0 1 2.242-10.971 81.131 81.131 0 0 1 3.777-11.115 83.482 83.482 0 0 1 5.683-10.923l17.556-.015ZM137.105 125.769v41.559h65.243v-41.559h-65.243Zm0 42.842V204.3c.373.078.743.153 1.11.216.5.096.997.184 1.505.259.096.015.196.03.301.039.199.033.403.06.602.087.503.069 1.002.126 1.505.171.238.024.479.045.719.063l.581.045c.316.024.629.042.939.051.193 0 .386.018.584.024h2.146c.259 0 .518 0 .774-.024h.018c.177 0 .358 0 .538-.024.051.003.101.003.151 0 .15 0 .301 0 .445-.021h.106l1.008-.078c.331-.03.665-.069 1.002-.105l.687-.081a60.173 60.173 0 0 0 8.261-1.755c6.086-1.694 12.04-4.064 18.122-5.801 7.865-2.238 16.554-3.337 24.154-.6v-28.155h-65.258Zm65.243-89.109V24.175a84.024 84.024 0 0 0-21.198 2.482c-16.521 4.142-31.344 13.128-44.045 24.604v28.238h3.274v1.283h-3.274v43.704h65.243v-43.7h-48.524v-1.284h48.524Zm83.801-18.688c-4.087-.145-8.15-1.436-11.825-3.431-7.028-3.815-12.641-9.707-18.914-14.678-13.032-10.356-29.195-16.604-45.776-18.154v54.951h93.138l.232-.243-16.855-18.445Zm8.485-1.502 8.996 9.853V56.728c-3.013.372-5.652 1.259-8.984 2.572l-.012.012Zm8.996 153.85v-44.551h-19.169c-.051-.189-.103-.382-.163-.574.057.192.105.385.16.574h-74.812v32.219a63.465 63.465 0 0 1 2.107 1.64c.75.601 1.49 1.235 2.234 1.857l.749.619c.358.3.719.601 1.084.883.722.585 1.451 1.162 2.188 1.73.364.301.737.571 1.107.854a150.81 150.81 0 0 0 18.55 12.109 182.18 182.18 0 0 0 4.391 2.347c.984.501 1.974 1 2.967 1.484 1.493.727 2.998 1.428 4.515 2.102a166.018 166.018 0 0 0 43.943 12.777c3.369.497 6.751.887 10.146 1.172v-27.245h.301l-.298.003ZM209.646 80.785v43.701h93.996v-43.7h-93.996Zm0 44.984v41.559h93.996v-41.559h-93.996Zm101.292-69.095v13.873l11.482-12.575a126.057 126.057 0 0 0-11.482-1.313v.015Zm0 69.11v41.544h91.422v-41.559l-91.422.015Zm91.088 90.677.322-47.85h-91.41v72.27c5.888.247 11.786.177 17.667-.21h.103c2.809-.176 5.605-.433 8.388-.769h.063a154.703 154.703 0 0 0 43.1-11.479l21.767-11.962Zm17.962-83.849a111.274 111.274 0 0 0-3.205-6.825h-7.133v41.541h18.034c-.009-11.764-2.991-23.781-7.687-34.731l-.009.015Zm-10.338 36.014v41.157c5.08-4.861 9.372-10.422 12.463-16.779 3.717-7.654 5.418-15.942 5.556-24.384l-18.019.006Zm0-54.952v10.815h6.465a117.21 117.21 0 0 0-6.456-10.83l-.009.015Zm-62.002-48.847c-.475-.18-.951-.363-1.43-.54a130.645 130.645 0 0 0-15.443-4.633l-17.571 19.247-.337.358.226.246h62.537a133.864 133.864 0 0 0-27.973-14.693l-.009.015ZM377.463 80.8H312.22l-1.282 1.172v42.514h91.434v-20.593a130.161 130.161 0 0 0-24.9-23.108l-.009.015Z" fill="#587EEC"/><path opacity=".1" d="M129.812 102.829v21.657h-30.45c0-.126.021-.255.03-.381a110.937 110.937 0 0 1 .193-2.235c.039-.394.081-.875.126-1.31.045-.436.087-.877.139-1.313.05-.436.096-.871.15-1.304.054-.432.102-.871.16-1.304.045-.36.093-.718.141-1.078.069-.508.142-1.019.22-1.523 0-.075.021-.153.033-.226a103.835 103.835 0 0 1 2.242-10.971l27.016-.012ZM99.266 125.772h30.546v41.556h-28.31c-.075.427-.148.856-.226 1.286h28.536v33.514c-.051-.015-.096-.033-.144-.051a54.981 54.981 0 0 1-2.408-1.016l-.512-.231a59.973 59.973 0 0 1-2.408-1.202 50.09 50.09 0 0 1-12.84-9.817c-.102-.099-.198-.204-.301-.3a51.706 51.706 0 0 1-1.429-1.611l-.512-.6a52.855 52.855 0 0 1-1.592-2.055c-.075-.102-.147-.205-.226-.301a44.715 44.715 0 0 1-5.177-9.343c-.042-.099-.078-.207-.117-.3a40.728 40.728 0 0 1-1.099-3.214c-.138-.454-.27-.902-.385-1.373a7.838 7.838 0 0 1-.111-.409c-1.71-6.66-1.911-13.579-1.911-20.449v-2.403c0-2.779.033-5.576.08-8.37 0-.724.031-1.445.046-2.172a283.137 283.137 0 0 1 .25-7.069c0-.294.015-.588.045-.883.072-1.069.132-2.13.205-3.187ZM160.072 87.043v37.443h-22.967V87.043h3.274V74.365h13.442v12.678h6.251ZM160.072 125.769h-22.964v41.556h22.964v-41.556ZM137.105 168.614h22.967v34.547a59.999 59.999 0 0 1-8.262 1.752l-.686.084c-.337.039-.671.072-1.002.105a27.94 27.94 0 0 1-1.008.078h-.106c-.144 0-.301.018-.442.021h-.154c-.18 0-.361.018-.541.024-.256.015-.512.018-.774.021h-2.131l-.581-.021c-.301 0-.626-.033-.939-.054l-.578-.042-.719-.066a30.764 30.764 0 0 1-1.505-.171l-.602-.084-.301-.042a48.36 48.36 0 0 1-1.505-.259c-.37-.063-.737-.141-1.11-.216l-.021-35.677ZM303.642 82.62h-18.938v41.863h18.938V82.621ZM303.645 125.769v41.559h-93.999v-17.926h50.068v10.575h24.99v-34.208h18.941ZM303.943 213.171h-.301v27.263a167.96 167.96 0 0 1-10.143-1.169 166.053 166.053 0 0 1-43.961-12.804 158.114 158.114 0 0 1-11.87-5.942 151.538 151.538 0 0 1-18.553-12.109 163.309 163.309 0 0 1-4.373-3.467c-.996-.82-1.986-1.661-2.989-2.479a67.853 67.853 0 0 0-2.107-1.643v-32.207h74.809c-.052-.192-.103-.385-.157-.574.057.189.112.382.163.574h19.181v44.539c.102.003.202.012.301.018ZM353.033 79.502h-12.341v-3.827h5.532v-11.4c.48.173.958.353 1.433.537v10.863h5.376v3.827ZM382.763 124.486h-60.581l.021.015-.027-.015h-11.238V82.624h3.184v30.942h14.552V95.241h12.021V80.788h12.341v14.465h12.021v18.325h17.706v10.908ZM310.938 125.769v41.559h71.825v-41.559h-71.825Zm91.323 90.478.099-32.895h-19.597v-14.72h-71.825v72.249c5.888.247 11.786.177 17.667-.21h.103c2.809-.176 5.605-.433 8.388-.769h.063a154.703 154.703 0 0 0 43.1-11.479M410.926 168.614h16.755c-.147 8.438-1.845 16.727-5.559 24.381-3.091 6.36-7.386 11.921-12.46 16.778v-26.436h1.264v-14.723ZM427.69 167.328h-16.764v-34.731h9.071c4.695 10.95 7.678 22.967 7.693 34.731Z" fill="#587EEC"/><path opacity=".1" d="M303.645 94.258h-10.146v13.126h10.146V94.258ZM303.645 121.464h-10.146v3.022h10.146v-3.022ZM303.645 125.769h-10.146v8.817h10.146v-8.817ZM303.645 148.669h-10.146v13.125h10.146v-13.125ZM303.645 175.875h-10.146V189h10.146v-13.125ZM303.642 213.153c.102 0 .202 0 .301.018h-.301v3.049h-10.143v-13.14h10.143v10.073ZM303.642 230.28v10.138a167.155 167.155 0 0 1-10.143-1.168v-8.97h10.143ZM253.129 166.364h-43.483v.964h43.483v-.964ZM253.129 168.611h-43.483v3.695h43.483v-3.695ZM253.129 184.419h-43.483v5.942h43.483v-5.942ZM253.126 202.474v5.942h-34.011a151.107 151.107 0 0 1-4.376-3.467c-.996-.82-1.983-1.661-2.989-2.475h41.376ZM253.126 220.525v5.936h-3.591a160.008 160.008 0 0 1-11.867-5.945l15.458.009ZM337.168 129.797h-8.56v8.544h8.56v-8.544ZM151.832 89.99h-8.56v8.544h8.56V89.99ZM151.832 109.835h-8.56v8.544h8.56v-8.544ZM151.832 129.68h-8.56v8.544h8.56v-8.544ZM151.832 149.523h-8.56v8.543h8.56v-8.543ZM151.832 169.368h-8.56v8.544h8.56v-8.544ZM151.832 189.213h-8.56v8.544h8.56v-8.544ZM369.845 129.797h-8.56v8.544h8.56v-8.544ZM337.168 150.871h-8.56v8.544h8.56v-8.544ZM369.845 150.871h-8.56v8.544h8.56v-8.544ZM337.168 171.942h-8.56v8.544h8.56v-8.544ZM369.845 171.942h-8.56v8.544h8.56v-8.544ZM337.168 193.016h-8.56v8.544h8.56v-8.544ZM369.845 193.016h-8.56v8.544h8.56v-8.544ZM337.168 214.09h-8.56v8.544h8.56v-8.544ZM369.845 214.09h-8.56v8.544h8.56v-8.544ZM328.608 240.671v-5.51h8.557v4.726l-8.557.784ZM100.518 113.807v4.887h29.294v-4.887h-29.294Zm2.919 4.581h-2.39v-4.281h2.408l-.018 4.281Zm2.917 0h-2.408v-4.281h2.408v4.281Zm2.91 0h-2.408v-4.281h2.408v4.281Zm2.917 0h-2.405v-4.281h2.408l-.003 4.281Zm2.913 0h-2.408v-4.281h2.408v4.281Zm2.917 0h-2.408v-4.281h2.408v4.281Zm2.916 0h-2.408v-4.281h2.408v4.281Zm2.914 0h-2.408v-4.281h2.408v4.281Zm2.913 0h-2.408v-4.281h2.408v4.281Zm2.914 0h-2.408v-4.281h2.408v4.281ZM100.518 128.028v4.888h29.294v-4.888h-29.294Zm2.919 4.578h-2.39v-4.268h2.408l-.018 4.268Zm2.917 0h-2.408v-4.268h2.408v4.268Zm2.91 0h-2.408v-4.268h2.408v4.268Zm2.917 0h-2.405v-4.268h2.408l-.003 4.268Zm2.913 0h-2.408v-4.268h2.408v4.268Zm2.917 0h-2.408v-4.268h2.408v4.268Zm2.916 0h-2.408v-4.268h2.408v4.268Zm2.914 0h-2.408v-4.268h2.408v4.268Zm2.913 0h-2.408v-4.268h2.408v4.268Zm2.914 0h-2.408v-4.268h2.408v4.268ZM100.518 142.255v4.897h29.294v-4.897h-29.294Zm2.919 4.579h-2.39v-4.272h2.408l-.018 4.272Zm2.917 0h-2.408v-4.272h2.408v4.272Zm2.91 0h-2.408v-4.272h2.408v4.272Zm2.917 0h-2.405v-4.272h2.408l-.003 4.272Zm2.913 0h-2.408v-4.272h2.408v4.272Zm2.917 0h-2.408v-4.272h2.408v4.272Zm2.916 0h-2.408v-4.272h2.408v4.272Zm2.914 0h-2.408v-4.272h2.408v4.272Zm2.913 0h-2.408v-4.272h2.408v4.272Zm2.914 0h-2.408v-4.272h2.408v4.272ZM100.518 156.483v4.882h29.294v-4.882h-29.294Zm2.919 4.578h-2.39v-4.275h2.408l-.018 4.275Zm2.917 0h-2.408v-4.275h2.408v4.275Zm2.91 0h-2.408v-4.275h2.408v4.275Zm2.917 0h-2.405v-4.275h2.408l-.003 4.275Zm2.913 0h-2.408v-4.275h2.408v4.275Zm2.917 0h-2.408v-4.275h2.408v4.275Zm2.916 0h-2.408v-4.275h2.408v4.275Zm2.914 0h-2.408v-4.275h2.408v4.275Zm2.913 0h-2.408v-4.275h2.408v4.275Zm2.914 0h-2.408v-4.275h2.408v4.275ZM100.644 170.708c.118.459.25.919.388 1.373v-1.067h2.408v4.272h-1.288c.039.099.078.207.117.3h27.543v-4.878h-29.168Zm5.719 4.578h-2.408v-4.272h2.408v4.272Zm2.91 0h-2.408v-4.272h2.408v4.272Zm2.917 0h-2.414v-4.272h2.408l.006 4.272Zm2.913 0h-2.408v-4.272h2.408v4.272Zm2.917 0h-2.408v-4.272h2.408v4.272Zm2.916 0h-2.408v-4.272h2.408v4.272Zm2.914 0h-2.408v-4.272h2.408v4.272Zm2.913 0h-2.408v-4.272h2.408v4.272Zm2.914 0h-2.408v-4.272h2.408v4.272ZM107.446 184.935c.076.096.148.204.226.301h1.592v2.051c.172.205.34.409.515.601v-2.664h2.408v4.286h-.975c.096.1.189.205.301.301h18.308v-4.876h-22.375Zm7.648 4.575h-2.408v-4.268h2.408v4.268Zm2.917 0h-2.408v-4.268h2.408v4.268Zm2.916 0h-2.408v-4.268h2.408v4.268Zm2.914 0h-2.408v-4.268h2.408v4.268Zm2.913 0h-2.408v-4.268h2.408v4.268Zm2.914 0h-2.408v-4.268h2.408v4.268ZM123.515 199.16c.274.156.554.3.837.456v-.15h2.408v1.352l.512.237v-1.589h2.407v2.599a.768.768 0 0 0 .145.054v-2.959h-6.309ZM322.182 124.486h.018-.018Zm-18.54 88.664h.301-.301Zm-19.344-45.113c.057.192.106.384.16.574-.048-.19-.1-.382-.16-.574Zm37.884-43.56h.018-.018ZM140.391 79.493v1.283h13.445v-1.283h-13.445ZM303.642 213.15h.301-.301Zm-19.344-45.113c.057.192.106.384.16.574-.048-.19-.1-.382-.16-.574Zm37.884-43.56h.018-.018Zm-18.54 88.664h.301-.301Zm-19.344-45.104c.057.192.106.384.16.574-.048-.19-.1-.382-.16-.574Z" fill="#587EEC"/><path d="M234.032 138.23s-1.186-.165-1.186-1.89c0-1.724-.849-4.945-.849-4.945 0-.015-.734-5.608-1.749-6.497-1.014-.89-2.317-6.111-2.317-6.111s-.223-2.833-.677-3.443c-.455-.609-1.069-2.103-1.975-4.232-.906-2.13-4.683-3.605-4.683-3.605s-6.829-3.954-8.764-5.243a2.946 2.946 0 0 1-.491-.369c-.337-.442-1.806-.451-1.806-.451-.153-.967-.301-2.079-.349-3.085 0-.108 0-.216-.015-.324a10.4 10.4 0 0 0 4.578-5.654c.036-.114.066-.234.099-.349a.98.98 0 0 0 .587-.528c.175-.388.178-.842.394-1.202.253-.427.735-.655 1.114-.976.957-.811 1.204-2.178 1.159-3.422-.03-1.007-.193-2.022-.13-3.022l.018-.253c.018-.15.039-.3.067-.444.147-.745.469-1.448.65-2.187.18-.74.198-1.571-.223-2.208-.617-.935-1.902-1.12-3.031-1.217-1.279-.108-2.423.033-3.241-1.027a11.613 11.613 0 0 0-1.289-1.553c-.168-.157-1.806-1.154-1.806-1.22a7.328 7.328 0 0 0-5.101-.39c-.849.246-1.649.648-2.51.85-1.857.438-3.994-.037-5.571 1.024-.879.6-1.406 1.556-1.9 2.487-.401.767-.808 1.533-1.222 2.298-.665 1.26-1.342 2.539-1.622 3.933-.059.303-.095.61-.108.92V84.382c0 .106 0 .208.018.301s.015.123.024.187c.009.063.024.204.042.3.018.096.054.264.09.396.015.058.037.112.055.166.03.102.066.2.105.3.021.051.042.105.066.156.045.105.099.208.154.3.024.043.042.082.066.12.084.14.176.275.277.403.644.802 1.592 1.313 2.293 2.064V89.413a10.269 10.269 0 0 0 4.689 8.396c0 .114.016.232.022.346.058.891.047 1.786-.034 2.676a1.263 1.263 0 0 0-.999-.444 1.465 1.465 0 0 0-.385.033l-.027-.021v.027c-.662.162-1.478.85-2.257 2.806 0 0-2.372 2.667-4.178 2.556-1.806-.111-6.378 2.776-6.378 2.776s-4.46 2.89-5.417 5.834a41.038 41.038 0 0 1-1.921 4.891l-5.514 11.34-1.017 8.998s.563 4.001.452 4.611c-.112.61 2.314 6.111 2.314 6.111s8.015 14.056 11.29 14.777l.235-.165c.14.073.288.128.442.165l.674-.475a7.253 7.253 0 0 1-.051 1.586c-.451 1.388.169 10.446.957 12.221.789 1.776.509 25.055.509 25.055l-.112 2.054s0 .067.028.181l-.028.486.082.042a5.765 5.765 0 0 1-.082 1.956c-.282.901-.397 3.449-.397 3.449s-2.254 14.384-1.186 17.274c1.069 2.89 1.978 6.056 1.978 6.056s1.128 3.605.054 4.221c-1.075.616-4.13 1.649-3.5 3.151.571 1.388 2.741 5.107 3.063 5.651l-.027.285-.442 4.786c.072.632.243 1.248.509 1.826.484 1.043 1.426 2.124 3.217 2.007.301-.021.65-.057.987-.102 3.278-.439 7.314-1.899 7.314-1.899a2.94 2.94 0 0 1-.572-.471 1.652 1.652 0 0 1-.502-1.202c.048-.871-1.587-5.023-1.993-6.044-.063-.147-.096-.232-.096-.232s3.726-3.887 3.106-7.333c0 0-4.124-2.403-2.766-3.722 1.357-1.319 3.783-5.107 3.783-5.107s.112-14.164 0-16.279a17.49 17.49 0 0 1 .208-4.395c.045-.22.099-.433.156-.643a39.44 39.44 0 0 0 5.671.43c.692 0 1.396-.001 2.107-.043 0 .201.009.417.027.649.156 3.509.448 9.662.686 11.948.337 3.277 2.2 12.109 2.2 12.109s-3.554 2.278.62 7.889c0 0 0 2.034-.277 2.328a25.472 25.472 0 0 0-.713 2.933c-.175 1.057-.247 2.126.036 2.682.677 1.328 4.74 1.22 4.74 1.22l.1-.018a5.82 5.82 0 0 1 4.301 1.295c1.544 1.237 7.404.694 10.576.3 1.243-.156 2.074-.3 2.074-.3.04-.141.054-.287.042-.433-.033-.778-.644-2.484-4.786-4.007 0 0-3.894-2.614-3.84-4.891h-.533c.328-.018.539 0 .539 0s-1.526-5.558-.903-6.008c.623-.451-1.243-6.61-1.243-6.61s-1.068-10.334-1.126-11.058a6.319 6.319 0 0 1 .28-1.832l-.28-5.666s-.054-1.884 0-2.497a12.453 12.453 0 0 0-.129-1.589c-.027-.21-.054-.429-.084-.646 1.459-.369 2.407-.712 2.407-.712l-.168-19.722c1.24-2.403 1.469-7.675 1.463-11.415 0-2.404-.109-4.182-.109-4.182l1.695-2.761s.391-3.304-.229-4.028c-.274-.328-.15-.667.075-.947.118-.093.241-.177.371-.252 0 0-.019-.027-.04-.066.119-.099.244-.188.377-.268 0 0-.602-.931-.064-1.324.506.342.958.6 1.301.811a4.464 4.464 0 0 1-.049.345l.145-.3.533.3s2.654-5.278 2.597-6.056c-.057-.778 1.806-4.056 1.806-4.056s.226-1.721 1.243-2.442c1.017-.721.789-5.945.789-5.945s.283-2.722.96-3.834c.677-1.111-.617-2.61-.617-2.61Zm-50.793-2.316.051 1.258-.518-.832.467-.426Z" fill="url(#ha)"/><path d="m227.398 160.893-.65 2.764s-5.207-2.653-6.146-6.023c-.939-3.371 1.571-4.651 1.571-4.651l4.852 2.052.373 5.858Z" fill="#fff"/><path opacity=".1" d="m227.398 160.893-.65 2.764s-5.207-2.653-6.146-6.023c-.939-3.371 1.571-4.651 1.571-4.651l4.852 2.052.373 5.858Z" fill="#000"/><path d="M198.176 254.956s-4.815 1.766-8.126 1.988c-1.758.117-2.682-.958-3.157-1.994a6.027 6.027 0 0 1-.497-1.818l.43-4.762.229-2.535 7.034-1.824.996 3.041.093.231c.401 1.015 2.005 5.146 1.957 6.008a1.648 1.648 0 0 0 .493 1.187c.162.182.346.342.548.478ZM231.07 252.534a1.2 1.2 0 0 1-.042.43s-10.299 1.715-12.406 0a5.584 5.584 0 0 0-4.334-1.268s-3.985.108-4.651-1.201c-.276-.55-.204-1.617-.033-2.668.175-.985.409-1.959.699-2.917l.159-.126.948-.76 11.1-.328h.085c-.055 2.265 3.768 4.864 3.768 4.864 4.06 1.502 4.659 3.199 4.707 3.974Z" fill="#fff"/><path opacity=".1" d="M231.07 252.534c.011.145-.005.29-.045.43 0 0-10.296 1.715-12.403 0a5.595 5.595 0 0 0-4.331-1.268s-3.988.108-4.651-1.202c-.276-.552-.207-1.616-.036-2.667 1.535.153 3.958.535 4.909 1.445 1.439 1.385 3.877 2.767 5.373 2.875 1.171.075 8.174.297 11.184.387ZM198.176 254.956s-4.815 1.766-8.126 1.988c-1.758.117-2.682-.958-3.154-1.997 1.225.411 2.925.844 3.819.447 1.059-.468 4.816-.772 6.923-.901.16.175.341.33.538.463Z" fill="#000"/><path d="M205.321 112.605c-3.972-1.541-9.083-6.633-7.807-9.013.283-.6.452-1.248.497-1.91.082-.899.094-1.803.036-2.704a37.143 37.143 0 0 0-.533-4.398s12.403.28 11.681 2.103c-.211.535-.244 1.463-.187 2.502.058 1.04.208 2.214.365 3.209.216 1.364.433 2.403.433 2.403s-.758 1.06-1.204 1.118c-.445.057 2.42 8.886-3.281 6.69Z" fill="#CF6F80"/><path opacity=".1" d="m195.169 247.283-.093.102c-3.708-4.476-8.192 1.103-8.192 1.103l-.067-.118.229-2.535 7.034-1.824.996 3.041.093.231ZM222.598 244.012s-2.709-.058-4.154 1.216c-1.445 1.274-8.427.277-8.126 0a.983.983 0 0 0 .156-.456l.948-.76 11.1-.328c.042.201.076.328.076.328Z" fill="#000"/><path d="M199.783 208.86a8.445 8.445 0 0 0-.457 1.541 17.609 17.609 0 0 0-.208 4.374c.112 2.103 0 16.196 0 16.196s-2.38 3.758-3.708 5.083c-1.327 1.324 2.709 3.704 2.709 3.704.602 3.424-3.046 7.294-3.046 7.294-3.708-4.476-8.192 1.105-8.192 1.105s-2.438-4.206-3.046-5.708c-.608-1.502 2.38-2.541 3.431-3.151 1.05-.61-.051-4.206-.051-4.206s-.888-3.151-1.942-6.026c-1.053-2.875 1.162-17.187 1.162-17.187s.114-2.541.388-3.427c.139-.64.166-1.298.082-1.947-.018-.219-.04-.403-.055-.526s-.027-.18-.027-.18l.042-.072 1.505-2.8s12.136 4.17 11.413 5.933ZM222.598 243.681s-2.709-.057-4.154 1.202c-1.445 1.259-8.427.276-8.126 0 .301-.276.277-2.322.277-2.322-4.097-5.582-.602-7.847-.602-7.847s-1.83-8.787-2.161-12.047c-.232-2.277-.518-8.396-.672-11.89-.066-1.502-.105-2.536-.105-2.536l3.347-.672.43-.088 8.073-1.616s.222 1.502.373 2.731c.075.525.117 1.053.126 1.583-.054.601 0 2.482 0 2.482l.274 5.638a6.407 6.407 0 0 0-.274 1.824c.054.718 1.105 10.998 1.105 10.998s1.827 6.134 1.204 6.576c-.623.442.885 5.984.885 5.984Z" fill="#587EEC"/><path opacity=".1" d="M209.195 96.683c-.211.535-.244 1.463-.187 2.502a10.321 10.321 0 0 1-10.961-.204 36.985 36.985 0 0 0-.533-4.401s12.403.273 11.681 2.103Z" fill="#000"/><path d="M213.99 90.044a10.18 10.18 0 0 1-.506 3.187 10.28 10.28 0 0 1-4.366 5.548 10.316 10.316 0 0 1-13.136-1.924 10.267 10.267 0 0 1-2.585-6.565v-.246a10.252 10.252 0 0 1 2.953-7.383 10.296 10.296 0 0 1 7.345-3.073 10.317 10.317 0 0 1 7.344 3.073 10.272 10.272 0 0 1 2.954 7.383h-.003Z" fill="#CF6F80"/><path opacity=".1" d="M205.321 112.605c-3.972-1.541-9.083-6.633-7.807-9.013.283-.6.452-1.248.497-1.91l5.438 4.461 3.365 2.755 2.559-6.501c.216 1.364.433 2.403.433 2.403s-.758 1.061-1.204 1.118c-.445.057 2.42 8.883-3.281 6.687Z" fill="#000"/><path d="m219.386 132.321-4.542 76.155-5.923.387-15.338-44.158 2.516-52.425.53-11.076 6.82 5.591 3.368 2.755 2.634-6.691 4.897 4.26 5.038 25.202Z" fill="#587EEC"/><path opacity=".1" d="M199.783 208.86a8.445 8.445 0 0 0-.457 1.541 43.684 43.684 0 0 1-12.418-3.872l-.082-.042.027-.484.015-.252 1.505-2.8s12.133 4.146 11.41 5.909ZM210.471 210.413a30.495 30.495 0 0 1-3.329.379c-.066-1.502-.105-2.536-.105-2.536l3.347-.673.087 2.83ZM219.26 208.611c-2.14.556-5.445 1.181-8.404.79l-.042-1.905 8.073-1.616s.222 1.487.373 2.731Z" fill="#000"/><path opacity=".1" d="M210.802 209.749c-12.34 2.103-23.642-3.926-23.642-3.926l.109-2.043s.28-23.159-.497-24.934c-.776-1.776-1.381-10.779-.942-12.161.44-1.382-1.604-22.104-1.604-22.104l-.331-8.412-12.118-4.9 5.418-11.271a40.547 40.547 0 0 0 1.884-4.867c.942-2.926 5.315-5.801 5.315-5.801s4.485-2.872 6.258-2.764c1.773.109 4.096-2.541 4.096-2.541 1.716-4.365 3.269-2.388 3.269-2.388 0 .207 0 0-.085.646-.602 4.791 9.734 19.932 9.882 20.199l.984 23.931.996 30.285 1.008 33.051Z" fill="#000"/><path d="M210.471 209.749c-12.34 2.103-23.645-3.926-23.645-3.926l.112-2.043s.28-23.159-.5-24.934c-.78-1.776-1.381-10.779-.939-12.161.442-1.382-1.604-22.104-1.604-22.104l-.334-8.412-12.124-4.918 5.418-11.271a41.3 41.3 0 0 0 1.884-4.867c.939-2.926 5.315-5.801 5.315-5.801s4.485-2.872 6.255-2.763c1.769.108 4.096-2.542 4.096-2.542 1.718-4.365 3.612-2.388 3.612-2.388 0 .207-.181.3-.085.646 1.325 4.647 9.403 19.932 9.55 20.199l.997 23.931.996 30.285.996 33.069Z" fill="#fff"/><path opacity=".1" d="M207.145 123.146c-1.327-.552-8.358-8.564-8.358-8.564v-1.824c-.256-.601-1.776-.234-3.01.186l.53-11.076.602.499c1.318 4.644 10.083 20.512 10.236 20.779Z" fill="#000"/><path d="M207.479 122.482c-1.33-.552-8.361-8.564-8.361-8.564v-1.824c-.256-.601-1.775-.234-3.009.186l.532-11.076.602.499c1.321 4.644 10.089 20.515 10.236 20.779Z" fill="#fff"/><path opacity=".1" d="M187.16 162.44c.166 0 8.581-.883 8.581-.883s5.096 10.001 4.762 12.434c-.334 2.433-.939 4.587-2.989 4.206-2.05-.382-11.031.3-11.031.3l.677-16.057Z" fill="#000"/><path d="M186.826 161.777c.166 0 8.581-.884 8.581-.884s5.093 10.004 4.762 12.434c-.331 2.431-.942 4.588-2.989 4.206-2.047-.381-11.031.301-11.031.301l.677-16.057Z" fill="#fff"/><path d="M193.168 157.081s7.723 4.143 7.889 5.407c.165 1.265-3.931-.552-4.816-.772a11.046 11.046 0 0 0-1.773-.276l-5.902.159 4.602-4.518Z" fill="#CF6F80"/><path opacity=".1" d="M204.99 123.663a.812.812 0 1 0 .002-1.624.812.812 0 0 0-.002 1.624Z" fill="#000"/><path d="M204.99 123.333a.812.812 0 1 0 .002-1.624.812.812 0 0 0-.002 1.624Z" fill="#3F3D56"/><path opacity=".1" d="M206.486 158.775a.812.812 0 1 0 .002-1.624.812.812 0 0 0-.002 1.624Z" fill="#000"/><path d="M206.486 158.442a.812.812 0 1 0 .002-1.624.812.812 0 0 0-.002 1.624Z" fill="#3F3D56"/><path opacity=".1" d="M205.8 141.219a.812.812 0 1 0 .002-1.624.812.812 0 0 0-.002 1.624Z" fill="#000"/><path d="M205.8 140.889a.812.812 0 1 0 .002-1.624.812.812 0 0 0-.002 1.624Z" fill="#3F3D56"/><path d="M224.533 161.272s.554.829 0 1.216c-.554.388.054 1.325.054 1.325s-1.381.808-.773 1.535c.608.727.222 4.011.222 4.011l-1.661 2.746s.099 1.769.105 4.16c0 3.731-.219 8.977-1.435 11.368l.168 19.62s-5.818 2.121-10.688 1.475l-.722-31.483s1.053-17.854 1.442-21.279c.227-1.778.319-3.57.277-5.362 0 0-.166-5.359-.723-7.847 0 0-.602-10.776-.662-13.759-.027-1.427.048-5.59.133-9.55.093-4.329.198-8.411.198-8.411l-1.098-8.676s1.098-.112 1.429.33c.149.138.31.262.482.37 1.896 1.279 8.596 5.215 8.596 5.215s3.708 1.472 4.596 3.581c.888 2.109 1.505 3.605 1.935 4.205.43.601.665 3.425.665 3.425s1.276 5.197 2.273 6.078c.996.88 1.724 6.479 1.724 6.479l-8.803 6.91s-.774 11.494-.94 11.938c-.165.445 3.206 10.38 3.206 10.38Z" fill="#fff"/><path d="M224.867 161.272s.551.829 0 1.217c-.551.387.051 1.324.051 1.324s-1.372.817-.77 1.544c.602.727.222 4.011.222 4.011l-1.661 2.746s.099 1.769.108 4.161c0 3.731-.219 8.976-1.435 11.367l.165 19.62s-5.827 2.121-10.691 1.475l-.719-31.483s1.053-17.854 1.442-21.278c.227-1.778.319-3.571.274-5.363 0 0-.166-5.359-.72-7.847 0 0-.602-10.775-.665-13.759-.027-1.426.051-5.59.133-9.55.093-4.329.198-8.411.198-8.411l-1.45-8.793s1.45 0 1.784.447c.147.14.309.264.482.37 1.896 1.28 8.599 5.215 8.599 5.215s3.705 1.472 4.593 3.581c.888 2.109 1.505 3.605 1.938 4.206.433.601.662 3.424.662 3.424s1.276 5.198 2.273 6.078c.996.88 1.715 6.468 1.715 6.468l-8.803 6.909s-.774 11.494-.943 11.939c-.168.444 3.218 10.382 3.218 10.382Z" fill="#fff"/><path opacity=".1" d="m214.324 113.596.794 2.313-4.183 4.206c.093-4.326.198-8.412.198-8.412l-1.45-8.793s1.45 0 1.784.448c.147.14.308.262.482.367l3.558 10.244-1.183-.373Z" fill="#000"/><path d="m213.99 112.932.797 2.313-4.183 4.206c.093-4.329.198-8.411.198-8.411l-1.453-8.793s1.453 0 1.784.447c.148.139.309.263.482.37l3.56 10.241-1.185-.373Z" fill="#fff"/><path opacity=".1" d="M213.99 90.044a10.18 10.18 0 0 1-.506 3.187.432.432 0 0 1-.325-.081c-.078-2.704-1.412-5.242-3.052-7.402a7.805 7.805 0 0 0-1.655-1.713 3.245 3.245 0 0 0-2.246-.633c-.903.123-1.7.736-2.612.814-1.204.099-2.282-.733-3.476-.775a3.424 3.424 0 0 0-2.556 1.183 6.997 6.997 0 0 0-1.369 2.536 14.833 14.833 0 0 0-.765 4.374c-.015.841-.096 1.895-.879 2.202a4.483 4.483 0 0 0-1.134-3.428l-.018-.018v-.246a10.252 10.252 0 0 1 2.953-7.383 10.296 10.296 0 0 1 7.345-3.073 10.317 10.317 0 0 1 7.344 3.073 10.272 10.272 0 0 1 2.954 7.383h-.003Z" fill="#000"/><path d="M207.958 73.722a7.103 7.103 0 0 0-5.002-.39c-.834.246-1.62.646-2.465.847-1.806.436-3.913-.036-5.463 1.018-.861.601-1.379 1.55-1.86 2.473l-1.204 2.289c-.656 1.253-1.318 2.526-1.592 3.905-.274 1.38-.109 2.923.767 4.032.638.808 1.58 1.316 2.273 2.076a4.507 4.507 0 0 1 1.131 3.425c.786-.301.861-1.358.879-2.2a14.8 14.8 0 0 1 .765-4.374 6.962 6.962 0 0 1 1.369-2.535 3.434 3.434 0 0 1 2.555-1.184c1.204.042 2.285.871 3.477.772.903-.075 1.703-.69 2.612-.81a3.232 3.232 0 0 1 2.246.633 7.716 7.716 0 0 1 1.652 1.713c1.643 2.16 2.977 4.692 3.055 7.402.34.249.831-.075.999-.46.169-.385.175-.835.388-1.202.247-.423.72-.648 1.09-.967.939-.808 1.174-2.169 1.138-3.404-.036-1.234-.277-2.487-.043-3.7.142-.746.461-1.443.636-2.179.174-.736.195-1.562-.217-2.196-.602-.931-1.869-1.114-2.974-1.201-1.255-.109-2.378.03-3.178-1.025a11.546 11.546 0 0 0-1.264-1.544c-.16-.156-1.77-1.148-1.77-1.214Z" fill="#512E4E"/><path opacity=".1" d="m175.245 137.073-3.145-5.804-.997 8.956s.554 3.977.443 4.587c-.112.61 2.269 6.077 2.269 6.077s7.865 13.982 11.076 14.703l10.85-7.739-2.877-3.647s-.996-.388-1.246 0c0 0-5.342-9.175-5.896-9.839-.554-.664-.446-1.988-.446-1.988s-.83-.884-.553-1.713c.276-.829-1.605-3.704-1.605-3.704l1.716-1.601-9.589 1.712Z" fill="#000"/><path d="m172.265 130.609-.831.661-.996 8.955s.554 3.977.442 4.587c-.111.61 2.273 6.078 2.273 6.078s7.861 13.981 11.073 14.702l10.853-7.739-2.88-3.647s-.997-.387-1.246 0c0 0-5.343-9.175-5.896-9.838-.554-.664-.443-1.989-.443-1.989s-.831-.883-.554-1.713c.277-.829-1.607-3.704-1.607-3.704l1.716-1.601-11.904-4.752Z" fill="#fff"/><path opacity=".1" d="M223.814 165.691c.601.73.222 4.007.222 4.007l-1.661 2.746s.099 1.773.105 4.161l-2.793.871a1.65 1.65 0 0 1-.78.05 1.649 1.649 0 0 1-1.372-1.681l.482-15.505 6.516 2.488c-.554.384.054 1.328.054 1.328s-1.381.805-.773 1.535Z" fill="#000"/><path d="M224.148 165.357c.602.73.222 4.011.222 4.011l-1.661 2.746s.099 1.769.108 4.16l-2.844.887a1.634 1.634 0 0 1-1.466-.258 1.627 1.627 0 0 1-.641-1.341l.485-15.552 6.519 2.487c-.557.385.051 1.325.051 1.325s-1.375.808-.773 1.535Z" fill="#fff"/><path d="M226.306 157.967s-.443 2.821-1.55 2.986c-1.108.166-1.605 4.564-2.709 4.407-1.105-.156-.373-4.088-.334-4.851.039-.763-1.204-3.924-.274-4.642.93-.718 3.873 0 3.873 0l.994 2.1Z" fill="#CF6F80"/><path opacity=".1" d="m228.662 136.244 2.089-4.206s.831 3.206.831 4.918c0 1.713 1.162 1.881 1.162 1.881s1.273 1.502.602 2.595c-.672 1.094-.943 3.816-.943 3.816s.22 5.194-.776 5.912-1.204 2.433-1.204 2.433-1.83 3.26-1.773 4.035c.057.775-2.546 6.023-2.546 6.023s1.273-6.522-6.146-9.34c0 0-.057-2.214.497-2.821.553-.607 1.417-.883.876-3.95-.542-3.067-.157-6.732-.157-7.468 0-.737 1.661-5.327 1.661-5.327l5.827 1.499Z" fill="#000"/><path d="m229.565 131.438 1.824.6s.834 3.206.834 4.918c0 1.713 1.162 1.881 1.162 1.881s1.273 1.502.602 2.595c-.672 1.094-.939 3.816-.939 3.816s.219 5.194-.777 5.912-1.219 2.433-1.219 2.433-1.827 3.26-1.77 4.035c.058.775-2.549 6.023-2.549 6.023s1.276-6.522-6.146-9.34c0 0-.054-2.214.5-2.821.554-.607 1.417-.883.876-3.95-.542-3.067-.157-6.732-.157-7.469 0-.736 1.661-5.326 1.661-5.326l6.098-3.307Z" fill="#fff"/><path opacity=".1" d="M189.279 240.449s2.908-1.824 4.816-.499c1.908 1.325-4.816.499-4.816.499ZM211.871 234.81s2.573-.331 4.734 1.992c2.161 2.322-4.734-1.992-4.734-1.992Z" fill="#000"/><g opacity=".1" fill="#000"><path opacity=".1" d="M215.636 89.527c-.37.319-.846.547-1.093.97-.21.364-.216.811-.385 1.202-.168.39-.659.709-.999.463-.078-2.704-1.415-5.243-3.055-7.406a7.716 7.716 0 0 0-1.652-1.712 3.242 3.242 0 0 0-2.249-.634c-.903.124-1.697.736-2.609.811-1.204.102-2.285-.73-3.48-.772a3.411 3.411 0 0 0-2.552 1.187 6.947 6.947 0 0 0-1.369 2.532 14.833 14.833 0 0 0-.765 4.374c-.018.839-.096 1.884-.873 2.197.018.221.018.444 0 .666.783-.3.861-1.358.879-2.199.034-1.488.292-2.962.765-4.374a6.962 6.962 0 0 1 1.369-2.535 3.411 3.411 0 0 1 2.553-1.184c1.203.042 2.287.871 3.479.772.903-.075 1.703-.69 2.609-.81a3.242 3.242 0 0 1 2.249.633 7.718 7.718 0 0 1 1.652 1.712c1.64 2.16 2.977 4.693 3.055 7.403.34.249.831-.075.999-.46.169-.385.175-.835.385-1.202.247-.423.723-.649 1.093-.967.939-.808 1.174-2.169 1.138-3.404v-.114c-.058 1.07-.343 2.16-1.144 2.851ZM193.418 89.314c-.693-.76-1.638-1.268-2.273-2.073a4.401 4.401 0 0 1-.876-2.46 4.627 4.627 0 0 0 .876 3.12c.635.809 1.58 1.317 2.273 2.077a4.505 4.505 0 0 1 1.134 2.68 4.499 4.499 0 0 0-1.134-3.344ZM217.367 80.244c-.178.736-.494 1.436-.639 2.178-.085.496-.116 1-.093 1.502a5.82 5.82 0 0 1 .093-.853c.145-.745.461-1.442.639-2.178.103-.406.137-.826.099-1.244-.019.2-.052.4-.099.595Z"/></g><path opacity=".1" d="M135.049 252.663c16.197 0 29.327-2.104 29.327-4.701 0-2.597-13.13-4.702-29.327-4.702-16.197 0-29.327 2.105-29.327 4.702s13.13 4.701 29.327 4.701Z" fill="#587EEC"/><path d="M135.994 157.898h-1.887v42.41h1.887v-42.41Z" fill="#535461"/><path d="m147.853 200.178-.118 1.911-.168 2.704-.07 1.123-.165 2.704-.072 1.124-.169 2.703-1.902 30.663a5.207 5.207 0 0 1-5.195 4.873h-9.89a5.21 5.21 0 0 1-3.563-1.41 5.193 5.193 0 0 1-1.629-3.463l-1.893-30.684-.169-2.703-.069-1.124-.168-2.704-.07-1.123-.168-2.704-.121-1.911a2.71 2.71 0 0 1 2.709-2.857h20.229a2.703 2.703 0 0 1 1.954.865 2.673 2.673 0 0 1 .707 2.013Z" fill="#3F3D56"/><path d="m147.735 202.089-.168 2.695h-25.036l-.168-2.695h25.372ZM147.498 205.907l-.166 2.698h-24.563l-.168-2.698h24.897ZM147.26 209.731l-.166 2.695h-24.087l-.169-2.695h24.422Z" fill="#9D9CB5"/><path d="M119.482 173.793c10.989 7.937 15.576 20.35 15.576 20.35s-13.243-.454-24.235-8.391c-10.991-7.937-15.57-20.347-15.57-20.347s13.238.451 24.229 8.388Z" fill="#587EEC"/><path d="M95.245 165.405s13.748 7.616 18.158 13.922c4.409 6.305 21.655 14.816 21.655 14.816" stroke="#535461" stroke-width="2" stroke-miterlimit="10"/><path d="M126.576 157.805c5.981 4.317 8.482 11.073 8.482 11.073s-7.208-.246-13.192-4.563c-5.983-4.317-8.478-11.076-8.478-11.076s7.205.246 13.188 4.566Z" fill="#587EEC"/><path d="M113.388 153.239s7.482 4.145 9.881 7.576c2.398 3.431 11.789 8.063 11.789 8.063" stroke="#535461" stroke-width="2" stroke-miterlimit="10"/><path d="M143.741 168.536c-6.871 7.537-8.325 17.388-8.325 17.388s9.689-2.374 16.554-9.914c6.865-7.54 8.325-17.388 8.325-17.388s-9.682 2.376-16.554 9.914Z" fill="#587EEC"/><path d="M160.301 158.625s-8.951 7.727-11.226 13.05c-2.276 5.323-13.659 14.249-13.659 14.249" stroke="#535461" stroke-width="2" stroke-miterlimit="10"/><path d="M395.979 165.883s-4.969-24.676-3.067-27.746c0 0 .069-2.854-.045-6.492v-.418c.335.223.684.424 1.044.601a8.466 8.466 0 0 0 5.689.733l-1.505-1.673c-.361-.4-.737-.832-.816-1.361-.078-.529.139-1 .326-1.472 1.429-3.605 1.504-8.138-1.25-10.89-2.326-2.313-2.892-5.299-5.417-7.411-1.845-1.547-2.859-3.815-3.817-6.008-.809-1.854-1.625-3.723-2.088-5.687-.362-1.535-.506-3.125-1.003-4.624-.496-1.499-1.426-2.956-2.88-3.626-.518-.237-1.093-.372-1.565-.688-.62-.417-.993-1.096-1.442-1.69-2.278-3.005-9.908-1.236-13.52-.016a7.601 7.601 0 0 0-2.672 1.478l.033-.054c.027-.045.06-.09.09-.135-.395.319-.737.7-1.011 1.126-.527.833-.747 1.803-1.186 2.704-.53 1.067-3.476 4.044-2.209 5.242.088.08.19.146.301.193.475.197.999.25 1.505.15l-.055.129a8.79 8.79 0 0 0-.653 3.332c0 4.935 4.078 8.937 9.114 8.937a9.203 9.203 0 0 0 2.79-.43c.021.114.039.229.06.343 0 .045.015.09.021.135l-.159.222a.34.34 0 0 0-.027-.039l-4.726 6.591c-.722.508-4.882 3.512-5.116 5.765-.247 2.467-.494 5.354-.494 5.354l-.033.618a1.854 1.854 0 0 1-1.505.406c-1.475-.24-1.475 5.407-1.475 5.407s-.981.902-1.655.121-2.456 1.865-2.456 1.865l-11.166.481-.256.015-.602-1.86a.788.788 0 0 0-1.12-.444l-.042.024-.078.054-.039.036a.52.52 0 0 0-.061.063l-.036.042-.018.018a.766.766 0 0 0-.108.673l.518 1.595c-2.155.433-4.359 1.652-2.562 5.011l-9.107-1.679 2.946 2.469 15.212 3.133c-.202.361-.07.884.559 1.62 2.709 3.175 7.645 4.037 9.632 4.259a17.043 17.043 0 0 0 1.953 3.305l-.171 3.163s-5.03 24.112-5.951 25.334a14.24 14.24 0 0 0 1.273-1.673c-1.459 4.954-3.5 11.734-4.036 12.749-.861 1.623-1.658 8.187-.677 8.607.301.129 1.162.066 2.39-.027v.544l-.054 20.605s.246 12.639-.431 13.843c-.677 1.205-.858 3.732-.858 3.732s-2.708 4.983-4.854 6.987a.314.314 0 0 1-.048.042l-.067-.468s-2.579 3.25-8.286 3.067c0 0-3.434 2.229 1.659 2.349 5.092.12 11.596-.18 11.596-.18s4.542-6.91 8.347-6.008v5.236h1.164v-5.321a4.75 4.75 0 0 0 1.359-1.354c.357-.538.6-1.144.715-1.779a3.807 3.807 0 0 0-1.36-3.524 2.261 2.261 0 0 1-.744-1.646l-.042.036c0-.105-.027-.213-.039-.324-.334-2.704-.752-8.283.725-12.41 2.026-5.66 2.64-13.543 1.165-18.236a41.803 41.803 0 0 1-1.171-4.569 44.244 44.244 0 0 1-.099-.556c1.008.137 2.006.337 2.989.601 3.416.94 10.889 1.115 17.27 1.064.015.174.033.357.054.54.114 1.274.352 2.534.71 3.762.801 2.403 1.168 12.998 1.168 12.998s1.033 8.712.47 12.257c-.301 1.971-.602 3.951-.774 5.939v.04s-1.691 4.806-2.928 7.417c-.03.066-.064.132-.094.195-.329.03-.654.102-.966.213 0 0-1.658 3.305-3.311 3.852-1.652.546-1.104 2.346 2.637 1.685s9.391-1.202 9.391-1.202l.243-3.37 1.15-1.436-.301 3.361 1.225-.24-.162-4.089 1.881-2.349s2.272-2.019-1.105-5.99v.087c-.036-.057-.069-.117-.108-.174v-.018c-.56-.865-1.006-2.479-.19-5.342 1.475-5.173 2.333-9.868 2.333-9.868s3.292-12.579-.665-18.53h.174a9.997 9.997 0 0 1-.906-2.977c2.929-.168 5.803-.697 8.148-1.838-.009-.012-1.421-29.861-2.589-34.614Zm-37.18-20.819v.06l-.602.031.602-.091Zm-2.064.286a.667.667 0 0 0-.271.129c-.259.365-.422.79-.473 1.235l-.939-.211s-.659-.141-1.607-.3l-.449-.451a96.196 96.196 0 0 0 3.739-.402Z" fill="url(#hb)"/><path d="m387.805 247.538-.358 4.257 1.2-.24-.18-4.617-.662.6Z" fill="#1D2366"/><path d="M360.406 227.326c-1.447 4.116-1.038 9.671-.713 12.368.121.998.232 1.605.232 1.605s-2.164 4.92-2.345 5.107c-.18.186-6.368 3.956-6.368 3.956l-4.325 2.521s-4.389-1.92-2.285-2.581a3.2 3.2 0 0 0 1.135-.772c2.107-1.998 4.752-6.964 4.752-6.964s.181-2.52.843-3.719c.662-1.198.421-13.795.421-13.795l.052-20.533v-2.677l8.231.06c.052.909.171 1.813.355 2.704a41.441 41.441 0 0 0 1.147 4.554c1.451 4.684.849 12.528-1.132 18.166Z" fill="#FFB0B1"/><path opacity=".1" d="M359.925 241.299s-2.164 4.921-2.345 5.107c-.18.186-6.368 3.956-6.368 3.956l-4.325 2.521s-4.389-1.92-2.285-2.581c.43-.172.817-.435 1.135-.772l.186 1.313 1.442-.06 12.34-11.082c.109.991.22 1.598.22 1.598Z" fill="#000"/><path d="m359.775 239.98-12.41 11.157-1.442.06-.301-2.102s-2.522 3.238-8.126 3.058c0 0-3.365 2.22 1.622 2.34 4.988.12 11.356-.18 11.356-.18s4.449-6.91 8.172-6.009v5.219h1.144v-5.267a4.742 4.742 0 0 0 2.028-3.124 3.827 3.827 0 0 0-1.327-3.509 2.261 2.261 0 0 1-.716-1.643Z" fill="#1D2366"/><path d="M388.948 233.743c-.8 2.854-.364 4.462.184 5.324v.018a9.843 9.843 0 0 1 1.439 3.506l.048.27-5.647 8.216-3.064 1.202s-4.927-1.679-4.027-2.16c.226-.117.578-.742.982-1.604 1.203-2.599 2.865-7.393 2.865-7.393v-.039c.174-1.98.451-3.954.758-5.919.551-3.535-.46-12.214-.46-12.214s-.361-10.554-1.144-12.954a19.795 19.795 0 0 1-.701-3.737c-.163-1.502-.199-2.74-.199-2.74s3.245-4.506 9.192.36c.476.388.894.842 1.243 1.346 4.108 5.834.801 18.686.801 18.686s-.828 4.674-2.27 9.832Z" fill="#FFB0B1"/><path opacity=".1" d="m390.628 242.861-5.647 8.216-3.063 1.202s-4.927-1.679-4.028-2.16c.226-.117.578-.742.982-1.604 2.085-.018 3.166 1.964 3.166 1.964l2.642-.42s3.486-6.838 4.268-7.255c.783-.418.121-3.121.121-3.121v-.688c.021.024.039.051.063.075v.018a9.825 9.825 0 0 1 1.439 3.506l.057.267Z" fill="#000"/><path d="M382.218 250.657s-1.504-2.758-4.388-1.74c0 0-1.622 3.305-3.244 3.84-1.623.534-1.081 2.337 2.585 1.679 3.666-.658 9.192-1.202 9.192-1.202l.241-3.361 3.726-4.738s2.221-2.01-1.084-5.966v.688s.662 2.704-.12 3.121c-.783.418-4.256 7.258-4.256 7.258l-2.652.421Z" fill="#1D2366"/><path opacity=".1" d="M360.045 201.897c.052.908.171 1.812.355 2.703-3.389-.495-6.534-.249-8.595-.087v-2.676l8.24.06ZM390.751 205.973s-4.815.235-10.558.283c-.163-1.502-.199-2.74-.199-2.74s3.245-4.506 9.192.36c.476.389.894.842 1.243 1.346.093.256.201.507.322.751Z" fill="#000"/><path d="M390.751 205.432s-21.092 1.019-27.521-.781c-6.429-1.799-12.801-.24-13.761-.658-.96-.417-.181-6.957.662-8.576.843-1.62 5.466-17.995 5.466-17.995l4.448-23.15 4.687-1.289.331-.093 8.165-2.247 5.984-1.649s11.897 46.362 10.877 49.781a8.743 8.743 0 0 0-.174 4.023c.155.912.437 1.799.836 2.634Z" fill="#1D2366"/><path d="M344.539 138.44s-4.214 4.506-1.023 7.018c3.19 2.511 5.288.24 5.288.24l-4.265-7.258Z" fill="#C7DAF5"/><path opacity=".1" d="M344.539 138.44s-4.214 4.506-1.023 7.018c3.19 2.511 5.288.24 5.288.24l-4.265-7.258Z" fill="#000"/><path d="M378.583 108.814s-.494.468-1.237 1.159c-1.06.989-2.628 2.434-4.018 3.644-1.927 1.673-3.516 2.902-2.947 1.854.569-1.049.461-2.875.178-4.585-.021-.114-.04-.228-.061-.339a31.248 31.248 0 0 0-.93-3.713s3.112-4.014 4.834-5.597c.641-.601 1.09-.847 1.117-.429.03.561.451 1.802.975 3.118a72.29 72.29 0 0 0 1.138 2.749c.529 1.225.951 2.139.951 2.139Z" fill="#FFB0B1"/><path opacity=".1" d="M376.542 104.049a8.904 8.904 0 0 1-2.055 4.236 8.933 8.933 0 0 1-3.928 2.601 31.337 31.337 0 0 0-.991-4.052s5.86-7.556 5.951-6.027c.021.58.478 1.866 1.023 3.242ZM369.975 112.905l.758-1.066s.503 3.058 2.351 1.709c1.848-1.349 1.938 10.151 1.938 10.151l-1.983 29.6-14.333-.856.406-14.303 1.623-7.21 4.012-10.481 2.386-3.464 2.842-4.08Z" fill="#000"/><path d="m375.022 123.882-1.806 26.764-.189 2.836-7.991-.478-.301-.018-6.02-.36.406-14.306 1.623-7.21 4.012-10.481 2.386-3.464 2.842-4.095.758-1.063s.503 3.058 2.351 1.709l.039-.027c1.806-1.141 1.89 10.193 1.89 10.193Z" fill="#1D2366"/><path d="M360.945 128.605s-.719 1.502-2.164 1.259c-1.444-.244-1.441 5.407-1.441 5.407s-.961.901-1.623.12-2.408 1.86-2.408 1.86l-10.937.48s4.867 2.22 3.913 8.938c0 0 16.523-1.022 17.065-2.581.542-1.559-2.405-15.483-2.405-15.483Z" fill="#fff"/><path opacity=".03" d="M360.945 128.605s-.719 1.502-2.164 1.259c-1.444-.244-1.441 5.407-1.441 5.407s-.961.901-1.623.12-2.408 1.86-2.408 1.86l-10.937.48s4.867 2.22 3.913 8.938c0 0 16.523-1.022 17.065-2.581.542-1.559-2.405-15.483-2.405-15.483Z" fill="#000"/><path d="m329.159 141.261 2.883 2.458 23.736 4.977-2.944-2.998-23.675-4.437ZM370.02 113.851c-.395.601-1.523 3.678-2.465 6.363-.786 2.238-1.442 4.206-1.442 4.206s-1.532 9.956-2.314 11.755c-.783 1.8-.359 8.817-.359 8.817l-2.916 17.331s-1.321 8.937-3.362 14.276c-2.014 5.254-4.256 7.717-4.325 7.796.903-1.22 5.824-25.235 5.824-25.235l1.625-30.288s.238-2.878.479-5.338c.24-2.461 5.116-5.819 5.116-5.819l4.702-6.672c.472.63.156 1.73-.563 2.808Z" fill="#fff"/><path d="M357.761 152.776s-6.923-.3-10.275-4.32c-3.353-4.019 7.75-1.604 7.75-1.604l2.886.661-.361 5.263Z" fill="#FFB0B1"/><path opacity=".1" d="M390.089 198.778a8.757 8.757 0 0 0-.175 4.023c-7.551.534-15.629-1.502-15.629-1.502-1.505 1.382-5.469 3.418-5.469 3.418l-2.161-26.736c-1.382-3.605-1.923-22.492-1.923-22.492s.123-.989.301-2.47c0-.036 0-.075.015-.111.538-4.137 1.607-11.902 2.131-12.951.722-1.442-2.222-5.278-2.222-5.278l1.34-11.401.162-1.376c2.823-1.258 4.987-5.278 4.987-5.278l1.662-2.905c1.806-1.156 1.899 10.178 1.899 10.178l-1.806 26.764 5.984-1.649s11.924 46.348 10.904 49.766Z" fill="#000"/><path d="M397.839 200.626c-8.232 4.08-23.193.3-23.193.3-1.505 1.382-5.469 3.419-5.469 3.419l-2.164-26.737c-1.378-3.605-1.92-22.492-1.92-22.492s1.739-14.092 2.462-15.531c.21-.421.108-1.045-.142-1.718a21.705 21.705 0 0 1-1.318-10.061l.578-4.9.159-1.373c2.827-1.262 4.991-5.281 4.991-5.281l1.505-2.632 2.769-4.848 1.312-2.296.223.202 1.7 1.538 1.806 1.502c2.357 1.983 6.429 5.473 8.53 7.609 1.848 1.881 2.432 9.196 2.6 14.703.111 3.626.045 6.467.045 6.467-1.863 3.062 3.01 27.639 3.01 27.639 1.135 4.749 2.516 34.49 2.516 34.49Z" fill="#fff"/><path opacity=".03" d="M382.038 116.192s-5.649 10.734-4.993 14.813c.656 4.08 2.522 8.697 1.622 9.776a3.331 3.331 0 0 1-2.646 1.318c-.903.061-3.31 1.74-3.31 1.92 0 .18-2.225.18-4.214 1.021-1.99.842-4.927 1.319-4.927 1.319s-5.719-.18-6.251.361c-.533.541-1.081 3.776.06 6.357 1.14 2.58 2.408 4.506 3.365 4.857.957.352 7.031-1.679 11.958-2.16 4.927-.48 10.275-4.377 10.275-4.377s5.89-2.103 6.922-5.639c1.033-3.535-1.261-22.969-1.261-22.969s-1.733-9.058-6.6-6.597Z" fill="#000"/><path opacity=".03" d="M381.316 115.291s-5.65 10.736-4.988 14.813c.662 4.077 2.522 8.697 1.62 9.778a3.325 3.325 0 0 1-2.643 1.319c-.903.06-3.311 1.74-3.311 1.92 0 .18-2.224.18-4.214 1.018-1.989.838-4.927 1.319-4.927 1.319s-5.718-.18-6.248.361c-.53.54-1.083 3.779.06 6.356 1.144 2.578 2.408 4.507 3.365 4.858.957.351 7.031-1.679 11.958-2.157 4.927-.478 10.276-4.38 10.276-4.38s5.887-2.103 6.907-5.636c1.02-3.533-1.261-22.972-1.261-22.972s-1.728-9.055-6.594-6.597Z" fill="#000"/><path d="M381.86 115.651s-5.649 10.737-4.987 14.813c.662 4.077 2.522 8.697 1.622 9.776a3.303 3.303 0 0 1-2.645 1.322c-.903.06-3.311 1.739-3.311 1.916 0 .178-2.221.181-4.214 1.022-1.992.841-4.927 1.318-4.927 1.318s-5.718-.18-6.251.361c-.533.541-1.081 3.779.06 6.357 1.141 2.577 2.408 4.506 3.365 4.857.957.352 7.031-1.679 11.958-2.16 4.927-.48 10.275-4.377 10.275-4.377s5.89-2.102 6.923-5.638c1.032-3.536-1.246-22.97-1.246-22.97s-1.758-9.042-6.622-6.597Z" fill="#fff"/><path opacity=".1" d="M381.737 144.449s-4.515-.902-2.944.6c1.571 1.502 1.562 2.818 3.486 2.758 1.923-.06-.542-3.358-.542-3.358ZM389.367 176.767s-2.041 1.379 1.863 4.557c3.903 3.179-1.863-4.557-1.863-4.557ZM385.472 188.102c0 .18-.722 6.609 1.98 8.216 2.703 1.607-1.98-8.216-1.98-8.216Z" fill="#000"/><path d="M342.559 137.716c-2.18.075-6.887.739-4.446 5.285 2.158 4.022 5.785 1.333 7.825-.706a7.675 7.675 0 0 0-3.379-4.579ZM345.966 142.259l.09-.093-.09.093Z" fill="#FFB0B1"/><path opacity=".1" d="M381.138 109.901c-2.312 1.577-4.25 2.908-4.629 3.184-1.035.766-3.01 5.264-4.283 7.559-1.014 1.847-4.31 2.322-5.553 2.439l.16-1.373c2.826-1.262 4.99-5.281 4.99-5.281l5.586-9.776 1.923 1.746 1.806 1.502Z" fill="#000"/><path d="M381.138 109.721c-2.312 1.577-4.25 2.908-4.629 3.187-1.035.763-3.01 5.26-4.283 7.556-1.014 1.847-4.31 2.322-5.553 2.439l.16-1.373c2.826-1.262 4.99-5.281 4.99-5.281l5.586-9.776 1.923 1.74s.722.594 1.806 1.508Z" fill="#DCE7FF"/><path d="M376.689 102.066a8.871 8.871 0 0 1-1.571 5.05 8.935 8.935 0 0 1-15.546-1.505 8.891 8.891 0 0 1-.335-6.186 8.914 8.914 0 0 1 3.786-4.908 8.943 8.943 0 0 1 11.508 1.741 8.9 8.9 0 0 1 2.158 5.808Z" fill="#FFB0B1"/><path opacity=".1" d="M392.268 132.032a7.914 7.914 0 0 1-2.88-3.088c-.503-.991-.837-2.136-1.695-2.839-.773-.631-1.806-.784-2.769-1.066-3.166-.934-5.821-3.818-5.92-7.111-.048-1.55.436-3.097.217-4.632a5.125 5.125 0 0 0-1.006-2.389 8.344 8.344 0 0 0-.869-.934c-.422-.396-.864-.781-1.249-1.202a4.657 4.657 0 0 1-.633-.856 4.106 4.106 0 0 1-.346-.796c-.602-1.838-.054-4.019-.716-5.879l-.036-.102c-.25-.661-.759-1.322-1.466-1.373-.707-.051-1.312.535-1.986.796-1.412.547-2.935-.384-4.112-1.334-1.177-.949-2.504-2.034-4-1.823-.99.141-1.772.814-2.684 1.162-.206.08-.419.141-.635.184a8.907 8.907 0 0 1 4.01-4.505 8.938 8.938 0 0 1 11.157 2.152 8.894 8.894 0 0 1 2.039 5.672 8.808 8.808 0 0 1-.195 1.86 73.042 73.042 0 0 0 1.138 2.749l1.7 1.538 1.806 1.502c2.357 1.982 6.429 5.473 8.53 7.609 1.848 1.887 2.426 9.199 2.6 14.705Z" fill="#000"/><path d="M360.012 93.078c.431-.874.644-1.854 1.159-2.683.756-1.201 2.074-1.97 3.428-2.436 3.537-1.217 11.01-2.983 13.243 0 .44.6.804 1.268 1.412 1.682.463.316 1.023.45 1.532.688 1.423.667 2.332 2.121 2.817 3.605.485 1.484.629 3.076.984 4.605.455 1.962 1.252 3.822 2.047 5.669.936 2.181 1.929 4.443 3.735 5.984 2.465 2.103 3.01 5.08 5.297 7.388 2.709 2.739 2.622 7.261 1.225 10.851-.183.471-.391.964-.319 1.466.072.501.446.958.798 1.357l1.48 1.668c-3.503.844-7.467-.983-9.098-4.188-.503-.991-.837-2.133-1.698-2.839-.77-.631-1.805-.781-2.766-1.063-3.166-.938-5.82-3.825-5.92-7.117-.048-1.547.437-3.094.217-4.627a5.108 5.108 0 0 0-1.008-2.403c-.828-1.078-2.077-1.802-2.751-3.004-1.141-2.01-.274-4.62-1.096-6.777-.253-.661-.758-1.322-1.466-1.373-.707-.051-1.312.535-1.989.796-1.409.547-2.932-.382-4.108-1.334-1.177-.952-2.505-2.034-4.003-1.82-.991.138-1.77.81-2.682 1.162-.674.259-2.041.49-2.631-.078-1.246-1.145 1.641-4.11 2.161-5.18Z" fill="#591D4B"/><path opacity=".1" d="M390.589 127.743c-.506-.992-.837-2.133-1.698-2.836-.77-.631-1.806-.784-2.769-1.067-3.163-.934-5.818-3.821-5.92-7.113-.048-1.548.436-3.098.22-4.63a5.132 5.132 0 0 0-1.009-2.388c-.83-1.079-2.079-1.803-2.751-3.004-1.14-2.007-.273-4.618-1.098-6.778-.25-.658-.759-1.318-1.463-1.373-.704-.054-1.315.538-1.989.8-1.409.546-2.935-.385-4.109-1.334-1.174-.95-2.507-2.034-4.003-1.824-.99.142-1.773.814-2.681 1.163-.675.258-2.044.493-2.634-.075-1.24-1.202 1.646-4.161 2.164-5.224.43-.878.644-1.854 1.162-2.683.027-.045.057-.09.087-.135-.387.32-.721.7-.99 1.123-.515.83-.729 1.803-1.159 2.683-.521 1.063-3.407 4.031-2.164 5.224.602.57 1.956.337 2.631.078.903-.351 1.691-1.024 2.681-1.162 1.505-.214 2.83.87 4.003 1.82 1.174.95 2.709 1.881 4.112 1.334.674-.261 1.264-.85 1.986-.796.722.054 1.204.712 1.466 1.373.822 2.157-.045 4.767 1.095 6.777.675 1.181 1.924 1.92 2.751 3.004a5.11 5.11 0 0 1 1.009 2.404c.219 1.532-.265 3.079-.217 4.626.099 3.304 2.754 6.179 5.92 7.117.954.282 1.996.432 2.766 1.063.864.706 1.204 1.848 1.698 2.839 1.631 3.205 5.595 5.032 9.098 4.188l-.698-.787c-3.037.045-6.11-1.68-7.497-4.407Z" fill="#000"/><path opacity=".1" d="M369.839 114.032c-.394.601-1.523 3.677-2.465 6.363-.882-.343-1.682-2.527-1.682-2.527l4.701-6.675c.482.661.166 1.757-.554 2.839Z" fill="#000"/><path d="M370.02 113.851c-.394.601-1.523 3.677-2.465 6.363-.882-.339-1.683-2.526-1.683-2.526l4.702-6.672c.481.657.165 1.757-.554 2.835Z" fill="#DCE7FF"/><path d="m342.685 144.542-2.607-8.205a.76.76 0 0 1 .237-.819.762.762 0 0 1 .847-.093.766.766 0 0 1 .379.447l2.607 8.195-.259 1.715-1.204-1.24Z" fill="#BE8B87"/><path opacity=".1" d="M340.325 135.616a.773.773 0 0 1 .967.499l2.606 8.195-.196 1.286.19.199.259-1.716-2.622-8.195a.768.768 0 0 0-1.363-.198c.051-.028.104-.051.159-.07Z" fill="#fff"/><path d="m342.685 144.542 1.463-.463-.214 1.406-.045.31-.428-.445-.776-.808Z" fill="#EFC8C4"/><path d="M343.461 145.35a.307.307 0 0 1 .094-.078.128.128 0 0 1 .141 0 .325.325 0 0 1 .051.081.264.264 0 0 0 .187.123l-.045.3-.428-.426Z" fill="#727A9C"/><path d="M340.063 139.251s5.228-.03 3.997 2.19c-1.231 2.221-3.154 2.488-3.154 2.488l-.843-4.678Z" fill="#FFB0B1"/><path d="M307.549 39.62h-.226c-8.981 0-16.924 4.743-21.493 11.742-4.569-7-12.511-11.743-21.493-11.743h-.225a25.607 25.607 0 0 0-17.928 7.56 25.511 25.511 0 0 0-7.412 17.96c0 8.355 3.666 20.21 10.814 29.964 13.62 18.586 36.244 34.848 36.244 34.848s22.625-16.259 36.241-34.848c7.151-9.755 10.814-21.61 10.814-29.964a25.513 25.513 0 0 0-7.411-17.96 25.607 25.607 0 0 0-17.925-7.56Zm-3.23 56.913a5.078 5.078 0 0 1-4.716-3.25h-5.37a1.702 1.702 0 0 1-1.598-1.154l-1.649-4.96-5.219 18.202a1.69 1.69 0 0 1-1.619 1.216h-.106a1.664 1.664 0 0 1-1.565-1.394l-5.378-32.288-3.931 19.106a1.678 1.678 0 0 1-1.628 1.27h-7.564a1.681 1.681 0 0 1-1.619-2.336 1.692 1.692 0 0 1 .954-.912c.212-.08.438-.116.665-.106h6.239l5.569-25.689a1.684 1.684 0 0 1 1.712-1.29 1.684 1.684 0 0 1 1.598 1.428l5.493 32.938 4.677-16.286a1.66 1.66 0 0 1 1.574-1.201h.034a1.68 1.68 0 0 1 1.595 1.153l2.982 8.956h4.088a5.05 5.05 0 0 1 8.878-1.377 5.032 5.032 0 0 1 .406 5.24 5.04 5.04 0 0 1-4.493 2.746l-.009-.012Z" fill="#EC5863"/></g><defs><linearGradient id="ha" x1="202.348" y1="256.953" x2="202.348" y2="72.097" gradientUnits="userSpaceOnUse"><stop stop-color="gray" stop-opacity=".25"/><stop offset=".54" stop-color="gray" stop-opacity=".12"/><stop offset="1" stop-color="gray" stop-opacity=".1"/></linearGradient><linearGradient id="hb" x1="67278.1" y1="139501" x2="67278.1" y2="44612.4" gradientUnits="userSpaceOnUse"><stop stop-color="gray" stop-opacity=".25"/><stop offset=".54" stop-color="gray" stop-opacity=".12"/><stop offset="1" stop-color="gray" stop-opacity=".1"/></linearGradient></defs></svg><svg viewBox="0 0 11 12.702" id="startVideo" xmlns="http://www.w3.org/2000/svg"><path d="M0 0v12.702L11 6.35 0 0Zm1 1.732v9.238l8-4.62-8-4.618Z" fill-rule="evenodd" fill="#4285F4"/></svg></svg>